<?xml version="1.0" encoding="UTF-8"?>
<svg xmlns="http://www.w3.org/2000/svg" viewBox="0 0 512 512" role="img" aria-label="NutriFlow"><title>NutriFlow — Ludgero Sangaletti</title>
<rect width="512" height="512" rx="114.6" fill="#ffea00"/>
<g transform="translate(71.7,71.7) scale(1.03842,1.05326)">
<path fill="#0a0a0a" fill-rule="evenodd" d="M133.4,163.0C133.2,163.0 133.2,163.0 133.1,163.1C133.0,163.2 132.9,163.5 132.8,163.8C132.6,164.0 132.1,164.1 132.0,164.4C131.9,164.6 131.9,164.9 131.9,165.1C131.9,165.3 131.8,165.3 132.0,165.5C132.2,165.7 132.8,164.9 133.0,166.4C133.2,167.9 132.8,173.0 133.0,174.5C133.2,176.0 133.8,173.9 134.0,175.4C134.2,176.9 133.9,182.1 134.0,183.5C134.1,184.9 134.3,183.7 134.5,183.9C134.7,184.1 135.1,184.6 135.2,184.8C135.4,184.9 135.3,184.9 135.6,184.9C136.0,184.9 136.9,184.9 137.2,184.9C137.6,184.9 137.5,184.9 137.6,184.8C137.8,184.6 138.0,184.3 138.1,184.1C138.3,184.0 138.5,184.0 138.6,183.9C138.8,183.8 138.9,183.5 138.9,183.4C138.9,183.2 138.7,183.1 138.6,183.0C138.5,182.9 138.4,183.0 138.2,182.9C138.1,182.8 137.9,183.9 137.9,182.5C137.8,181.1 138.0,175.9 137.9,174.4C137.7,172.9 137.0,174.5 136.9,173.5C136.7,172.5 137.0,169.4 136.9,168.4C136.7,167.4 136.0,168.2 135.9,167.5C135.7,166.8 135.9,165.0 135.9,164.4C135.8,163.8 135.8,164.1 135.5,164.0C135.2,163.9 134.6,164.1 134.4,164.0C134.1,163.9 134.1,163.8 134.0,163.6C133.9,163.5 134.0,163.4 133.9,163.2C133.8,163.1 133.5,163.0 133.4,163.0Z M127.6,157.0C127.5,157.0 127.4,157.0 127.2,157.0C127.1,157.0 127.0,157.2 127.0,157.2C127.0,157.3 127.0,157.3 127.0,157.4C127.0,157.4 126.9,157.1 126.9,157.5C126.9,157.9 126.9,159.4 126.9,159.8C126.9,160.1 127.0,159.9 126.8,159.9C126.5,159.9 125.7,159.9 125.5,159.9C125.3,159.9 125.4,160.0 125.4,160.0C125.3,160.0 125.3,160.0 125.2,160.0C125.2,160.0 125.0,160.1 125.0,160.2C125.0,160.4 125.0,160.5 125.0,160.6C125.0,160.7 125.2,160.8 125.2,160.9C125.3,160.9 125.3,160.9 125.4,160.9C125.4,160.9 125.3,161.0 125.5,161.0C125.7,161.0 126.2,161.0 126.4,161.0C126.5,161.0 126.5,160.9 126.5,160.9C126.5,160.9 126.6,160.9 126.6,160.9C126.7,160.9 126.7,160.8 126.8,160.8C126.8,160.7 126.7,160.7 126.8,160.6C126.8,160.6 126.9,160.6 126.9,160.5C126.9,160.4 126.8,160.4 126.9,160.2C126.9,160.1 127.1,159.9 127.2,159.9C127.4,159.8 127.4,159.9 127.5,159.9C127.6,159.9 127.6,159.8 127.6,159.8C127.7,159.7 127.7,159.8 127.8,159.8C127.8,159.7 127.9,159.7 127.9,159.6C127.9,159.6 127.9,159.5 127.9,159.5C127.9,159.5 128.0,159.7 128.0,159.4C128.0,159.0 128.0,157.8 128.0,157.5C128.0,157.2 127.9,157.4 127.9,157.4C127.9,157.3 127.9,157.3 127.9,157.2C127.8,157.2 127.7,157.0 127.6,157.0Z M181.2,140.0C181.1,140.0 181.0,140.2 181.0,140.2C181.0,140.3 181.0,140.3 181.0,140.4C181.0,140.4 180.9,140.0 180.9,140.5C180.9,141.0 180.9,142.9 180.9,143.4C180.9,143.9 181.0,143.5 181.0,143.5C181.0,143.5 181.0,143.6 181.0,143.6C181.0,143.7 181.1,143.8 181.2,143.9C181.4,143.9 181.5,143.9 181.6,143.9C181.7,143.8 181.8,143.7 181.9,143.6C181.9,143.6 181.9,143.5 181.9,143.5C181.9,143.5 182.0,143.9 182.0,143.4C182.0,142.9 182.0,141.0 182.0,140.5C182.0,140.0 181.9,140.4 181.9,140.4C181.9,140.3 181.9,140.3 181.9,140.2C181.8,140.2 181.7,140.0 181.6,140.0C181.5,140.0 181.4,140.0 181.2,140.0Z M162.2,135.0C162.1,135.0 162.0,135.2 162.0,135.2C162.0,135.3 162.0,135.3 162.0,135.4C162.0,135.4 161.9,134.8 161.9,135.5C161.9,136.2 161.9,138.7 161.9,139.4C161.9,140.0 162.0,139.5 162.0,139.5C162.0,139.5 162.0,139.6 162.0,139.6C162.0,139.7 162.1,139.8 162.2,139.9C162.4,139.9 162.5,139.9 162.6,139.9C162.7,139.8 162.8,139.7 162.9,139.6C162.9,139.6 162.9,139.5 162.9,139.5C162.9,139.5 163.0,140.0 163.0,139.4C163.0,138.7 163.0,136.2 163.0,135.5C163.0,134.8 162.9,135.4 162.9,135.4C162.9,135.3 162.9,135.3 162.9,135.2C162.8,135.2 162.7,135.0 162.6,135.0C162.5,135.0 162.4,135.0 162.2,135.0Z M183.2,128.0C183.1,128.0 183.0,128.2 183.0,128.2C183.0,128.3 183.0,128.3 183.0,128.4C183.0,128.4 182.9,128.0 182.9,128.5C182.9,129.0 182.9,130.9 182.9,131.4C182.9,131.9 183.0,131.5 183.0,131.5C183.0,131.5 183.0,131.6 183.0,131.6C183.0,131.7 183.1,131.8 183.2,131.9C183.4,131.9 183.5,131.9 183.6,131.9C183.7,131.8 183.8,131.7 183.9,131.6C183.9,131.6 183.9,131.5 183.9,131.5C183.9,131.5 184.0,131.9 184.0,131.4C184.0,130.9 184.0,129.0 184.0,128.5C184.0,128.0 183.9,128.4 183.9,128.4C183.9,128.3 183.9,128.3 183.9,128.2C183.8,128.2 183.7,128.0 183.6,128.0C183.5,128.0 183.4,128.0 183.2,128.0Z M163.2,128.0C163.1,128.0 163.0,128.2 163.0,128.2C163.0,128.3 163.0,128.3 163.0,128.4C163.0,128.4 162.9,128.0 162.9,128.5C162.9,129.0 162.9,130.9 162.9,131.4C162.9,131.9 163.0,131.5 163.0,131.5C163.0,131.5 163.0,131.6 163.0,131.6C163.0,131.7 163.1,131.8 163.2,131.9C163.4,131.9 163.5,131.9 163.6,131.9C163.7,131.8 163.8,131.7 163.9,131.6C163.9,131.6 163.9,131.5 163.9,131.5C163.9,131.5 164.0,131.9 164.0,131.4C164.0,130.9 164.0,129.0 164.0,128.5C164.0,128.0 163.9,128.4 163.9,128.4C163.9,128.3 163.9,128.3 163.9,128.2C163.8,128.2 163.7,128.0 163.6,128.0C163.5,128.0 163.4,128.0 163.2,128.0Z M183.4,118.9C183.2,118.9 182.7,118.9 182.5,118.9C182.3,118.9 182.4,119.0 182.4,119.0C182.3,119.0 182.3,119.0 182.2,119.0C182.2,119.0 182.1,119.1 182.1,119.1C182.1,119.2 182.1,119.2 182.1,119.2C182.1,119.3 182.0,119.3 182.0,119.4C182.0,119.4 182.1,119.5 182.0,119.6C181.9,119.7 181.7,119.9 181.6,120.0C181.5,120.1 181.5,119.9 181.4,120.0C181.3,120.1 181.1,120.0 181.0,120.4C180.9,120.8 181.0,121.9 181.0,122.2C181.0,122.6 180.9,122.2 180.9,122.4C180.9,122.6 180.9,123.2 180.9,123.4C180.9,123.6 181.0,123.5 181.0,123.5C181.0,123.5 181.0,123.6 181.0,123.6C181.0,123.7 181.1,123.8 181.2,123.9C181.4,123.9 181.5,123.9 181.6,123.9C181.7,123.8 181.8,123.7 181.9,123.6C181.9,123.6 181.9,123.5 181.9,123.5C181.9,123.5 182.0,123.9 182.0,123.4C182.0,122.8 182.0,120.7 182.0,120.1C182.0,119.6 181.9,120.0 182.1,120.0C182.4,120.0 183.1,120.0 183.4,120.0C183.6,120.0 183.5,119.9 183.5,119.9C183.5,119.9 183.6,119.9 183.6,119.9C183.6,119.9 183.6,119.8 183.6,119.8C183.6,119.7 183.7,119.7 183.8,119.6C183.8,119.5 183.8,119.2 183.8,119.1C183.7,119.0 183.7,119.0 183.6,119.0C183.6,119.0 183.5,119.0 183.5,119.0C183.5,119.0 183.5,118.9 183.4,118.9Z M94.4,14.0C84.8,9.6 79.1,22.1 76.0,25.4C72.9,28.6 72.4,30.4 76.0,33.5C79.6,36.6 91.1,37.8 97.5,43.9C103.9,49.9 112.5,69.0 114.2,69.9C116.0,70.8 113.7,56.4 107.9,49.4C102.1,42.4 80.3,30.0 79.4,27.9C78.5,25.8 94.7,31.6 102.5,36.9C110.3,42.1 122.2,51.4 126.0,59.4C129.8,67.3 126.4,83.0 125.0,84.6C123.6,86.2 119.6,70.0 117.6,69.0C115.6,68.0 111.9,67.6 113.0,78.4C114.1,89.1 110.8,127.4 124.0,133.5C137.2,139.6 179.8,114.4 192.5,114.9C205.2,115.4 200.0,130.0 200.0,136.4C200.0,142.7 196.9,149.4 192.5,153.0C188.1,156.6 181.0,160.3 173.5,158.0C166.0,155.7 153.3,138.1 147.4,139.0C141.5,139.9 138.7,155.8 138.0,163.4C137.3,171.0 139.2,179.9 143.0,184.5C146.8,189.1 154.0,193.8 160.5,190.9C167.0,187.9 178.0,168.4 182.2,166.9C186.5,165.3 190.2,176.6 186.0,181.6C181.8,186.7 164.9,196.4 157.0,197.1C149.1,197.9 146.1,188.0 138.5,186.0C130.9,184.0 118.5,182.2 111.4,185.0C104.2,187.8 102.0,199.5 95.6,203.0C89.3,206.5 80.1,201.8 73.4,206.0C66.6,210.2 57.5,227.4 55.1,228.0C52.7,228.6 60.6,219.6 58.9,209.4C57.2,199.1 42.2,175.5 44.9,166.4C47.6,157.3 74.9,155.3 75.0,154.8C75.1,154.2 51.1,160.0 45.4,163.0C39.7,166.0 42.0,173.1 40.9,172.6C39.7,172.1 36.2,163.7 38.4,159.9C40.5,156.1 49.8,150.6 53.9,149.8C58.0,148.9 62.5,155.8 62.9,154.5C63.2,153.2 55.1,142.4 56.1,141.9C57.1,141.4 68.5,152.3 68.9,151.5C69.2,150.7 57.5,137.5 58.1,136.9C58.8,136.2 73.7,148.5 72.9,147.5C72.1,146.5 60.4,130.2 53.4,131.0C46.4,131.8 36.4,137.8 31.0,152.4C25.6,167.0 20.8,201.8 21.0,218.5C21.2,235.2 28.6,246.3 32.0,252.5C35.4,258.7 37.0,256.1 41.5,255.9C46.0,255.7 60.1,252.5 58.9,251.2C57.6,250.0 38.8,254.7 33.9,248.5C28.9,242.3 28.7,214.5 29.2,213.9C29.8,213.3 27.6,239.3 37.4,244.9C47.2,250.4 83.7,245.9 88.0,247.2C92.3,248.6 59.6,253.9 63.4,252.9C67.1,251.8 101.6,244.0 110.5,240.9C119.4,237.7 119.1,233.5 116.6,234.0C114.2,234.5 95.6,246.6 95.9,243.6C96.2,240.6 112.0,216.9 118.5,215.9C125.0,214.9 135.2,235.8 135.0,237.5C134.8,239.2 118.8,223.6 117.0,226.4C115.2,229.2 123.1,251.5 124.1,254.4C125.1,257.3 131.2,230.5 122.9,243.9C114.5,257.2 71.6,319.3 74.0,334.5C76.4,349.7 123.0,339.0 137.5,334.9C152.0,330.8 158.8,309.9 160.8,309.9C162.8,309.9 144.5,340.1 149.5,334.9C154.5,329.6 182.0,292.3 190.9,278.5C199.8,264.7 203.4,253.8 203.0,252.0C202.6,250.2 189.8,268.3 188.2,268.0C186.8,267.7 189.6,255.0 194.0,250.1C198.4,245.3 205.5,237.1 214.4,238.9C223.3,240.7 232.7,257.2 247.4,260.9C262.1,264.5 291.6,271.0 302.5,260.9C313.4,250.8 313.0,217.3 312.9,200.4C312.8,183.5 307.1,169.6 301.9,159.4C296.6,149.1 288.3,139.8 281.5,139.0C274.7,138.2 263.1,152.6 261.0,154.5C258.9,156.4 268.1,149.0 269.0,150.2C269.9,151.5 264.8,161.9 266.5,161.9C268.2,161.9 278.6,150.0 279.0,150.1C279.4,150.2 269.4,159.5 269.0,162.5C268.6,165.5 274.6,168.5 276.4,167.9C278.1,167.3 276.4,158.6 279.5,158.9C282.6,159.1 293.0,164.7 295.0,169.4C297.0,174.1 292.5,186.6 291.6,187.0C290.7,187.4 294.9,176.3 289.5,172.0C284.1,167.7 263.4,161.7 259.0,161.4C254.6,161.0 258.4,167.3 263.4,169.9C268.4,172.4 287.1,167.9 289.0,176.6C290.9,185.4 276.7,212.5 275.0,222.4C273.3,232.3 281.2,238.2 278.6,236.0C276.0,233.8 266.7,213.5 259.5,209.0C252.3,204.5 237.7,209.7 235.2,209.0C232.8,208.3 245.5,207.9 245.0,204.8C244.5,201.6 239.1,193.1 232.5,190.0C225.9,186.9 208.4,187.4 205.2,186.0C202.1,184.6 213.5,191.5 213.9,181.5C214.3,171.5 207.9,135.8 207.8,126.0C207.6,116.2 215.8,129.9 213.0,122.8C210.2,115.6 198.5,94.0 190.9,83.4C183.3,72.8 177.1,64.2 167.5,59.0C157.9,53.8 145.6,59.5 133.4,52.0C121.2,44.5 103.9,18.4 94.4,14.0Z M226.9,232.2C227.0,232.1 227.2,231.8 227.5,231.8C227.8,231.7 228.2,231.7 228.5,231.9C228.8,232.1 229.0,232.7 229.4,232.9C229.7,233.0 230.2,232.7 230.5,232.9C230.8,233.0 231.0,233.7 231.4,233.9C231.7,234.0 232.2,233.7 232.5,233.9C232.8,234.0 233.0,234.7 233.4,234.9C233.7,235.0 234.2,234.7 234.5,234.9C234.8,235.0 234.9,235.7 235.4,235.9C235.9,236.0 237.0,235.7 237.5,235.9C238.0,236.0 238.0,236.7 238.4,236.9C238.7,237.0 239.2,236.7 239.5,236.9C239.8,237.0 239.7,237.7 240.4,237.9C241.0,238.0 242.8,237.7 243.5,237.9C244.2,238.0 241.7,238.7 244.4,238.9C247.0,239.0 256.8,239.0 259.5,238.9C262.2,238.7 260.2,238.1 260.4,237.9C260.6,237.7 260.5,237.8 260.8,237.8C261.0,237.8 261.4,237.8 261.6,237.9C261.8,238.0 262.2,238.1 262.0,238.5C261.8,238.9 260.5,239.8 260.1,240.1C259.8,240.5 259.9,240.3 260.0,240.5C260.1,240.7 261.1,241.1 261.0,241.5C260.9,241.9 260.1,242.8 259.5,243.0C258.9,243.2 257.9,242.8 257.4,243.0C256.9,243.2 256.8,243.8 256.5,244.0C256.2,244.2 255.7,243.8 255.4,244.0C255.0,244.2 256.7,244.8 254.5,245.0C252.3,245.2 244.5,245.2 242.4,245.0C240.2,244.8 242.0,244.2 241.5,244.0C241.0,243.8 239.9,244.2 239.4,244.0C238.9,243.8 238.8,243.2 238.5,243.0C238.2,242.8 237.9,243.3 237.4,243.0C236.9,242.7 236.0,241.3 235.5,241.0C235.0,240.7 235.6,242.1 234.4,241.0C233.1,239.9 229.0,235.8 227.9,234.5C226.8,233.2 228.0,233.8 227.9,233.5C227.7,233.2 227.2,233.0 227.0,232.8C226.8,232.5 226.8,232.4 226.9,232.2Z M106.0,224.4C106.1,224.6 106.5,224.8 106.0,225.5C105.5,226.2 103.5,227.7 103.0,228.4C102.5,229.0 103.5,228.8 103.0,229.5C102.5,230.2 100.4,232.2 99.8,232.8C99.1,233.3 99.5,233.0 99.2,233.0C99.0,233.0 98.6,232.9 98.4,233.0C98.2,233.1 98.1,233.1 98.0,233.4C97.9,233.6 98.1,234.2 97.9,234.6C97.6,235.1 97.1,235.8 96.5,236.0C95.9,236.2 94.9,235.8 94.4,236.0C93.9,236.2 93.8,236.8 93.5,237.0C93.2,237.2 92.7,236.8 92.4,237.0C92.0,237.2 93.3,237.8 91.5,238.0C89.7,238.2 83.2,238.2 81.4,238.0C79.5,237.8 80.8,237.2 80.5,237.0C80.2,236.8 79.7,237.2 79.4,237.0C79.0,236.8 79.0,236.2 78.5,236.0C78.0,235.8 76.9,236.2 76.4,236.0C75.9,235.8 76.0,235.1 75.5,235.0C75.0,234.9 73.9,235.2 73.5,235.1C73.1,235.1 73.0,234.8 72.9,234.6C72.8,234.5 72.8,234.4 72.9,234.2C72.9,234.1 73.0,234.0 73.2,233.9C73.5,233.8 74.3,233.9 74.6,233.8C74.9,233.6 75.0,233.1 75.0,232.9C75.0,232.6 75.4,232.9 74.9,232.4C74.4,231.9 72.5,230.3 72.0,229.8C71.5,229.2 71.8,229.4 71.9,229.2C72.0,229.1 72.2,228.8 72.5,228.8C72.8,228.7 73.2,228.7 73.5,228.9C73.8,229.1 73.9,229.7 74.4,229.9C74.9,230.0 76.0,229.7 76.5,229.9C77.0,230.0 76.5,230.7 77.4,230.9C78.2,231.0 80.7,230.7 81.5,230.9C82.3,231.0 81.5,231.7 82.4,231.9C83.2,232.0 85.7,232.0 86.5,231.9C87.3,231.7 86.5,231.0 87.4,230.9C88.2,230.7 90.7,231.0 91.5,230.9C92.3,230.7 91.9,230.0 92.4,229.9C92.9,229.7 94.0,230.0 94.5,229.9C95.0,229.7 95.0,229.0 95.4,228.9C95.7,228.7 96.2,229.0 96.5,228.9C96.8,228.7 97.0,228.0 97.4,227.9C97.7,227.7 98.2,228.0 98.5,227.9C98.8,227.7 99.0,227.0 99.4,226.9C99.7,226.7 100.2,227.0 100.5,226.9C100.8,226.7 101.0,226.0 101.4,225.9C101.7,225.7 102.0,226.2 102.5,225.9C103.0,225.5 103.9,224.2 104.4,223.9C104.9,223.5 105.2,223.8 105.5,223.9C105.8,224.0 105.9,224.1 106.0,224.4Z M306.0,218.2C306.1,221.5 306.2,234.1 306.0,237.5C305.8,240.9 305.2,237.9 305.0,238.4C304.8,238.9 305.2,240.0 305.0,240.5C304.8,241.0 304.2,240.7 304.0,241.4C303.8,242.0 304.2,243.8 304.0,244.5C303.8,245.2 303.2,244.7 303.0,245.4C302.8,246.0 303.2,247.8 303.0,248.5C302.8,249.2 302.2,248.5 302.0,249.4C301.8,250.2 302.2,252.7 302.0,253.5C301.8,254.3 301.2,254.0 301.0,254.4C300.8,254.7 301.2,255.2 301.0,255.5C300.8,255.8 300.2,256.0 300.0,256.4C299.8,256.7 300.2,257.1 300.0,257.5C299.8,257.9 298.9,258.8 298.5,259.0C298.1,259.2 297.7,258.8 297.4,259.0C297.0,259.2 298.3,259.8 296.5,260.0C294.7,260.2 288.2,260.2 286.4,260.0C284.5,259.8 286.3,259.2 285.5,259.0C284.7,258.8 282.2,259.2 281.4,259.0C280.5,258.8 281.8,258.2 280.5,258.0C279.2,257.8 274.7,258.2 273.4,258.0C272.0,257.8 273.2,257.2 272.5,257.0C271.8,256.8 270.0,257.2 269.4,257.0C268.7,256.8 268.8,256.2 268.5,256.0C268.2,255.8 267.7,256.2 267.4,256.0C267.0,255.8 266.8,255.2 266.5,255.0C266.2,254.8 265.7,255.2 265.4,255.0C265.0,254.8 264.8,254.2 264.5,254.0C264.2,253.8 263.7,254.2 263.4,254.0C263.0,253.8 262.8,253.2 262.5,253.0C262.2,252.8 261.8,253.2 261.4,253.0C261.0,252.8 260.2,252.0 260.0,251.8C259.8,251.5 259.8,251.4 259.9,251.2C260.0,251.1 260.1,250.8 260.5,250.8C260.9,250.7 262.0,250.7 262.5,250.9C263.0,251.1 262.0,251.7 263.4,251.9C264.7,252.0 269.2,251.7 270.5,251.9C271.8,252.0 270.4,252.7 271.4,252.9C272.4,253.0 275.5,252.7 276.5,252.9C277.5,253.0 276.0,253.7 277.4,253.9C278.7,254.0 283.2,253.7 284.5,253.9C285.8,254.0 284.0,254.7 285.4,254.9C286.7,255.0 291.2,255.0 292.5,254.9C293.8,254.7 293.0,254.0 293.4,253.9C293.7,253.7 293.6,254.6 294.5,253.9C295.4,253.1 298.1,250.4 298.9,249.5C299.6,248.6 298.7,248.7 298.9,248.4C299.0,248.0 299.7,247.8 299.9,247.5C300.0,247.2 299.7,246.7 299.9,246.4C300.0,246.0 300.7,246.0 300.9,245.5C301.0,245.0 300.7,243.9 300.9,243.4C301.0,242.9 301.7,243.0 301.9,242.5C302.0,242.0 302.2,241.1 301.9,240.4C301.5,239.7 300.0,238.9 299.9,238.4C299.7,237.9 300.7,238.0 300.9,237.5C301.0,237.0 300.7,235.9 300.9,235.4C301.0,234.9 301.7,235.0 301.9,234.5C302.0,234.0 301.7,232.9 301.9,232.4C302.0,231.9 302.7,232.0 302.9,231.5C303.0,231.0 302.7,229.9 302.9,229.4C303.0,228.9 303.7,229.3 303.9,228.5C304.0,227.7 303.7,225.2 303.9,224.4C304.0,223.5 304.7,224.2 304.9,223.2C305.0,222.3 304.7,219.4 304.8,218.5C304.8,217.6 305.0,217.9 305.2,217.9C305.5,217.8 305.9,215.0 306.0,218.2Z M230.0,214.2C230.0,214.6 229.0,215.7 228.5,216.0C228.0,216.3 227.8,215.8 227.1,216.2C226.5,216.8 225.1,218.5 224.5,219.0C223.9,219.5 223.7,218.8 223.4,219.0C223.0,219.2 223.0,219.8 222.5,220.0C222.0,220.2 220.9,219.8 220.4,220.0C219.9,220.2 219.8,220.8 219.5,221.0C219.2,221.2 218.7,220.8 218.4,221.0C218.0,221.2 217.8,221.8 217.5,222.0C217.2,222.2 216.8,221.8 216.4,222.0C216.0,222.2 215.2,223.0 215.0,223.4C214.8,223.7 214.2,223.3 214.9,224.1C215.5,225.0 218.3,227.5 219.0,228.4C219.7,229.3 217.9,228.2 219.0,229.5C220.1,230.8 224.7,234.9 225.9,236.1C227.0,237.3 226.1,236.5 226.0,236.6C225.9,236.8 225.8,237.1 225.4,237.1C224.9,237.2 223.8,236.8 223.4,237.0C223.0,237.2 222.2,237.4 223.0,238.5C223.8,239.6 227.2,242.4 228.0,243.4C228.8,244.4 227.5,243.8 228.0,244.5C228.5,245.2 230.5,246.7 231.0,247.4C231.5,248.0 231.2,248.1 231.1,248.4C231.1,248.6 231.1,249.2 230.6,249.0C230.2,248.8 229.0,247.3 228.5,247.0C228.0,246.7 227.7,247.2 227.4,247.0C227.0,246.8 226.8,246.2 226.5,246.0C226.2,245.8 225.7,246.2 225.4,246.0C225.0,245.8 224.8,245.2 224.5,245.0C224.2,244.8 224.0,245.5 223.4,245.0C222.7,244.5 221.2,242.5 220.5,242.0C219.8,241.5 220.0,242.5 219.4,242.0C218.7,241.5 217.2,239.5 216.5,239.0C215.8,238.5 215.3,239.1 215.0,238.9C214.7,238.6 215.4,238.1 214.9,237.4C214.4,236.6 212.4,235.2 211.9,234.5C211.4,233.8 212.0,233.7 211.9,233.4C211.7,233.0 211.1,232.9 210.9,232.5C210.6,232.1 210.9,231.2 210.5,231.0C210.1,230.8 210.2,229.5 208.4,231.0C206.5,232.5 201.2,238.5 199.5,240.0C197.8,241.5 198.9,239.7 198.4,240.0C197.9,240.3 197.0,241.7 196.5,242.0C196.0,242.3 195.7,241.8 195.4,242.0C195.0,242.2 195.0,242.8 194.5,243.0C194.0,243.2 192.9,242.8 192.4,243.0C191.9,243.2 192.6,243.8 191.5,244.0C190.4,244.2 186.6,244.2 185.5,244.1C184.4,244.1 184.9,243.8 184.9,243.6C184.8,243.4 185.0,243.0 185.2,242.9C185.5,242.7 186.1,243.1 186.6,242.8C187.1,242.4 187.9,241.2 188.4,240.9C188.9,240.6 189.0,241.2 189.5,240.9C190.0,240.5 190.9,239.2 191.4,238.9C191.9,238.5 191.8,239.4 192.5,238.9C193.2,238.4 194.7,236.4 195.4,235.9C196.0,235.4 196.0,236.2 196.5,235.9C197.0,235.5 197.9,234.2 198.4,233.9C198.9,233.5 197.4,235.8 199.5,233.9C201.6,232.0 209.0,224.8 210.9,222.5C212.8,220.2 211.1,221.0 210.9,220.4C210.7,219.8 209.8,219.4 209.8,219.0C209.7,218.6 210.1,218.1 210.4,217.9C210.7,217.7 211.2,218.0 211.5,217.9C211.8,217.7 212.0,217.0 212.4,216.9C212.7,216.7 213.2,217.0 213.5,216.9C213.8,216.7 213.9,216.0 214.4,215.9C214.9,215.7 216.0,216.0 216.5,215.9C217.0,215.7 216.5,215.0 217.4,214.9C218.2,214.7 220.7,215.0 221.5,214.9C222.3,214.7 221.7,214.0 222.4,213.9C223.0,213.7 224.8,213.7 225.5,213.9C226.2,214.0 226.1,214.7 226.4,214.9C226.7,215.0 227.0,215.1 227.4,214.9C227.8,214.7 228.3,213.9 228.8,213.8C229.2,213.6 230.0,213.9 230.0,214.2Z M252.9,211.2C252.9,211.1 253.2,210.9 253.2,210.9C253.3,210.8 253.3,210.9 253.4,210.9C253.4,210.9 253.1,210.8 253.5,210.8C253.9,210.7 255.6,210.7 256.0,210.8C256.4,210.8 256.0,210.9 256.1,210.9C256.2,210.9 256.4,210.8 256.5,210.9C256.6,211.0 256.9,211.3 257.0,211.4C257.1,211.5 257.0,211.5 257.0,211.5C257.0,211.5 257.1,211.6 257.1,211.6C257.2,211.6 257.2,211.6 257.2,211.6C257.3,211.6 257.3,211.7 257.4,211.8C257.4,211.8 257.5,211.7 257.5,211.8C257.5,211.8 257.6,211.9 257.6,211.9C257.7,211.9 257.8,211.9 257.9,211.9C257.9,211.9 257.9,211.8 258.0,211.8C258.1,211.7 258.3,211.7 258.4,211.8C258.5,211.8 258.5,211.9 258.5,211.9C258.5,211.9 258.6,211.8 258.6,211.9C258.7,211.9 258.8,212.1 258.9,212.1C258.9,212.2 258.9,212.2 258.9,212.2C258.9,212.3 259.0,212.3 259.0,212.4C259.0,212.4 259.0,212.4 259.0,212.5C259.0,212.6 259.2,212.7 259.2,212.8C259.3,212.8 259.3,212.7 259.4,212.8C259.4,212.8 259.5,212.9 259.5,212.9C259.5,212.9 259.5,212.8 259.6,212.9C259.7,212.9 259.9,213.1 260.0,213.2C260.1,213.4 260.1,213.5 260.0,213.6C259.9,213.8 259.8,213.9 259.6,214.0C259.5,214.1 259.4,214.1 259.2,214.0C259.1,213.9 258.9,213.7 258.9,213.6C258.8,213.5 258.9,213.5 258.9,213.5C258.9,213.5 258.8,213.4 258.8,213.4C258.7,213.3 258.8,213.3 258.8,213.2C258.7,213.2 258.7,213.1 258.6,213.1C258.5,213.1 258.3,213.1 258.2,213.1C258.2,213.1 258.2,213.0 258.1,213.0C258.1,213.0 258.0,213.0 258.0,213.0C258.0,213.0 258.1,213.1 257.9,213.1C257.7,213.1 257.1,213.1 256.9,213.1C256.7,213.1 256.8,213.0 256.8,213.0C256.7,213.0 256.5,213.1 256.4,213.0C256.2,212.9 256.0,212.6 255.9,212.5C255.8,212.4 255.9,212.4 255.9,212.4C255.9,212.3 255.8,212.3 255.8,212.2C255.7,212.2 255.7,212.3 255.6,212.2C255.6,212.2 255.5,212.1 255.5,212.1C255.5,212.1 255.4,212.1 255.4,212.1C255.3,212.1 255.4,212.0 255.2,212.0C255.1,212.0 254.8,212.0 254.6,212.0C254.5,212.0 254.7,212.1 254.5,212.1C254.3,212.1 253.7,212.1 253.5,212.1C253.3,212.1 253.4,212.0 253.4,212.0C253.3,212.0 253.3,212.1 253.2,212.0C253.2,211.9 252.9,211.8 252.9,211.6C252.8,211.5 252.8,211.4 252.9,211.2Z M101.9,206.2C102.0,206.1 102.2,205.8 102.5,205.8C102.8,205.7 103.3,205.7 103.5,205.8C103.7,205.8 102.8,205.9 103.6,205.9C104.5,205.9 107.5,205.7 108.5,205.9C109.5,206.0 107.7,206.7 109.4,206.9C111.1,207.0 117.2,206.9 118.8,206.9C120.3,206.9 118.8,206.8 118.9,206.8C119.0,206.7 119.2,206.7 119.4,206.8C119.6,206.8 119.9,207.1 120.0,207.2C120.1,207.4 120.1,207.4 120.0,207.5C119.9,207.6 119.8,207.9 119.6,208.0C119.5,208.1 119.4,208.1 119.2,208.1C119.1,208.2 119.0,208.1 119.0,208.4C119.0,208.6 119.2,209.2 119.0,209.5C118.8,209.8 118.2,210.0 118.0,210.4C117.8,210.7 118.2,211.2 118.0,211.5C117.8,211.8 117.2,212.0 117.0,212.4C116.8,212.8 117.0,213.5 117.0,213.8C117.0,214.0 117.1,213.8 117.1,213.9C117.1,214.0 117.2,214.2 117.1,214.4C117.1,214.5 116.9,214.8 116.8,214.9C116.6,215.0 116.5,215.0 116.4,215.0C116.2,215.0 116.0,214.8 115.9,214.6C115.8,214.5 115.8,214.4 115.8,214.2C115.7,214.1 116.1,214.0 115.5,214.0C114.9,214.0 113.2,214.3 112.4,214.0C111.5,213.7 111.0,212.3 110.5,212.0C110.0,211.7 110.0,212.5 109.4,212.0C108.7,211.5 107.2,209.5 106.5,209.0C105.8,208.5 105.9,209.3 105.4,209.0C104.9,208.7 104.0,207.4 103.6,207.1C103.3,206.8 103.4,207.1 103.4,207.1C103.3,207.1 103.4,207.0 103.2,207.0C103.1,207.0 102.7,207.2 102.5,207.1C102.3,207.1 102.0,206.8 101.9,206.6C101.8,206.5 101.8,206.4 101.9,206.2Z M309.2,202.9C309.4,202.8 309.5,202.8 309.6,202.9C309.8,202.9 309.9,203.1 310.0,203.2C310.1,203.4 310.1,202.9 310.1,203.5C310.1,204.1 310.1,206.1 310.1,206.6C310.1,207.2 310.0,206.6 310.0,206.8C310.0,206.9 310.0,207.1 310.0,207.2C310.0,207.4 310.1,207.3 310.1,207.4C310.1,207.5 310.0,207.6 310.1,207.8C310.2,207.9 310.6,207.9 310.8,208.0C310.9,208.1 311.1,206.8 311.1,208.5C311.2,210.2 311.1,216.7 311.1,218.4C311.1,220.1 311.1,218.5 311.0,218.6C310.9,218.7 310.8,218.9 310.6,219.0C310.5,219.1 310.4,219.1 310.2,219.0C310.1,218.9 310.0,218.7 309.9,218.6C309.8,218.5 309.8,219.9 309.8,218.4C309.7,216.8 309.7,210.8 309.8,209.2C309.8,207.7 309.9,209.2 309.9,209.1C309.9,209.0 309.9,208.7 309.9,208.6C309.9,208.5 309.8,208.6 309.8,208.5C309.7,208.4 309.9,208.2 309.8,208.1C309.6,208.0 309.3,208.0 309.1,207.9C309.0,207.8 308.8,208.1 308.8,207.4C308.7,206.6 308.7,204.2 308.8,203.5C308.8,202.8 308.8,203.4 308.9,203.2C309.0,203.1 309.1,202.9 309.2,202.9Z M53.2,202.9C53.4,202.8 53.5,202.8 53.6,202.9C53.8,202.9 53.9,203.2 54.0,203.2C54.1,203.3 54.0,203.3 54.0,203.4C54.0,203.4 54.1,203.3 54.1,203.5C54.1,203.7 54.1,204.5 54.1,204.8C54.1,205.0 54.2,204.7 54.2,204.8C54.3,204.8 54.3,204.9 54.4,204.9C54.4,204.9 54.5,204.9 54.5,204.9C54.5,204.9 54.6,205.0 54.6,205.0C54.7,205.0 54.7,205.0 54.8,205.0C54.8,205.0 55.0,205.2 55.0,205.2C55.0,205.3 55.0,205.3 55.0,205.4C55.0,205.4 55.1,205.3 55.1,205.5C55.1,205.7 55.1,206.4 55.1,206.6C55.1,206.8 55.0,206.6 55.0,206.8C55.0,206.9 55.0,207.1 55.0,207.2C55.0,207.4 55.1,207.3 55.1,207.4C55.1,207.5 55.1,207.7 55.1,207.8C55.1,207.8 55.2,207.7 55.2,207.8C55.3,207.8 55.3,207.9 55.4,207.9C55.4,207.9 55.5,207.9 55.5,207.9C55.5,207.9 55.6,208.0 55.6,208.0C55.7,208.0 55.7,208.0 55.8,208.0C55.8,208.0 56.0,208.2 56.0,208.2C56.0,208.3 56.0,208.3 56.0,208.4C56.0,208.4 56.1,208.2 56.1,208.5C56.1,208.8 56.1,210.0 56.1,210.4C56.1,210.7 56.0,210.5 56.0,210.5C56.0,210.5 56.1,210.5 56.0,210.6C55.9,210.7 55.8,210.9 55.6,211.0C55.5,211.1 55.4,211.1 55.2,211.0C55.1,210.9 54.9,210.7 54.9,210.6C54.8,210.5 54.9,210.5 54.9,210.5C54.9,210.5 54.8,210.6 54.8,210.4C54.7,210.2 54.7,209.5 54.8,209.2C54.8,209.0 54.9,209.2 54.9,209.1C54.9,209.0 54.9,208.7 54.9,208.6C54.9,208.5 54.8,208.6 54.8,208.5C54.7,208.4 54.8,208.2 54.8,208.1C54.7,208.1 54.7,208.1 54.6,208.1C54.6,208.1 54.5,208.0 54.5,208.0C54.5,208.0 54.4,208.0 54.4,208.0C54.3,208.0 54.3,207.9 54.2,207.9C54.2,207.9 54.2,207.9 54.1,207.9C54.1,207.8 53.9,207.7 53.9,207.6C53.8,207.6 53.9,207.5 53.9,207.5C53.9,207.5 53.8,207.6 53.8,207.4C53.7,207.2 53.7,206.5 53.8,206.2C53.8,206.0 53.9,206.2 53.9,206.1C53.9,206.0 53.9,205.7 53.9,205.6C53.9,205.5 53.8,205.6 53.8,205.5C53.7,205.4 53.8,205.2 53.8,205.1C53.7,205.1 53.7,205.1 53.6,205.1C53.6,205.1 53.5,205.0 53.5,205.0C53.5,205.0 53.4,205.0 53.4,205.0C53.3,205.0 53.3,204.9 53.2,204.9C53.2,204.9 53.2,204.9 53.1,204.9C53.1,204.8 52.9,204.7 52.9,204.6C52.8,204.6 52.9,204.5 52.9,204.5C52.9,204.5 52.8,204.5 52.8,204.4C52.7,204.2 52.7,203.7 52.8,203.5C52.8,203.3 52.9,203.4 52.9,203.4C52.9,203.3 52.8,203.3 52.9,203.2C52.9,203.2 53.1,202.9 53.2,202.9Z M230.9,193.1C230.9,193.0 231.0,192.9 231.1,192.9C231.2,192.8 231.5,192.8 231.6,192.9C231.8,192.9 231.9,193.2 232.0,193.2C232.1,193.3 232.0,193.3 232.0,193.4C232.0,193.4 232.1,193.5 232.1,193.5C232.1,193.5 232.1,193.6 232.1,193.6C232.1,193.7 232.2,193.7 232.2,193.8C232.3,193.8 232.3,193.7 232.4,193.8C232.4,193.8 232.5,193.9 232.5,193.9C232.5,193.9 232.5,193.8 232.6,193.9C232.7,193.9 232.9,194.2 233.0,194.2C233.1,194.3 233.0,194.3 233.0,194.4C233.0,194.4 233.1,194.5 233.1,194.5C233.1,194.5 233.1,194.6 233.1,194.6C233.1,194.7 233.2,194.7 233.2,194.8C233.3,194.8 233.3,194.7 233.4,194.8C233.4,194.8 233.5,194.9 233.5,194.9C233.5,194.9 233.5,194.8 233.6,194.9C233.7,194.9 233.9,195.2 234.0,195.2C234.1,195.3 234.0,195.3 234.0,195.4C234.0,195.4 234.1,195.5 234.1,195.5C234.1,195.5 234.1,195.6 234.1,195.6C234.1,195.7 234.2,195.7 234.2,195.8C234.3,195.8 234.3,195.7 234.4,195.8C234.4,195.8 234.5,195.9 234.5,195.9C234.5,195.9 234.5,195.8 234.6,195.9C234.7,195.9 234.9,196.2 235.0,196.2C235.1,196.3 235.0,196.3 235.0,196.4C235.0,196.4 235.1,196.5 235.1,196.5C235.1,196.5 235.1,196.6 235.1,196.6C235.1,196.7 235.2,196.7 235.2,196.8C235.3,196.8 235.3,196.7 235.4,196.8C235.4,196.8 235.5,196.9 235.5,196.9C235.5,196.9 235.5,196.8 235.6,196.9C235.7,196.9 235.9,197.1 236.0,197.2C236.1,197.4 236.0,197.6 236.0,197.8C236.0,197.9 235.9,198.0 235.8,198.0C235.6,198.0 235.4,198.1 235.2,198.0C235.1,197.9 234.9,197.7 234.9,197.6C234.8,197.5 234.9,197.5 234.9,197.5C234.9,197.5 234.8,197.4 234.8,197.4C234.7,197.3 234.8,197.3 234.8,197.2C234.7,197.2 234.7,197.1 234.6,197.1C234.6,197.1 234.5,197.1 234.5,197.1C234.5,197.1 234.4,197.0 234.4,197.0C234.3,197.0 234.3,197.1 234.2,197.0C234.2,196.9 233.9,196.7 233.9,196.6C233.8,196.5 233.9,196.5 233.9,196.5C233.9,196.5 233.8,196.4 233.8,196.4C233.7,196.3 233.8,196.3 233.8,196.2C233.7,196.2 233.7,196.1 233.6,196.1C233.6,196.1 233.5,196.1 233.5,196.1C233.5,196.1 233.4,196.0 233.4,196.0C233.3,196.0 233.3,196.1 233.2,196.0C233.2,195.9 232.9,195.7 232.9,195.6C232.8,195.5 232.9,195.5 232.9,195.5C232.9,195.5 232.8,195.4 232.8,195.4C232.7,195.3 232.8,195.3 232.8,195.2C232.7,195.2 232.7,195.1 232.6,195.1C232.6,195.1 232.5,195.1 232.5,195.1C232.5,195.1 232.4,195.0 232.4,195.0C232.3,195.0 232.3,195.1 232.2,195.0C232.2,194.9 231.9,194.7 231.9,194.6C231.8,194.5 231.9,194.5 231.9,194.5C231.9,194.5 231.8,194.4 231.8,194.4C231.7,194.3 231.8,194.3 231.8,194.2C231.7,194.2 231.7,194.1 231.6,194.1C231.6,194.1 231.5,194.1 231.5,194.1C231.5,194.1 231.4,194.0 231.4,194.0C231.3,194.0 231.3,194.1 231.2,194.0C231.2,193.9 230.9,193.8 230.9,193.6C230.8,193.5 230.8,193.2 230.9,193.1Z M302.4,172.9C302.4,172.9 302.5,172.8 302.6,172.9C302.7,172.9 302.9,173.2 303.0,173.2C303.1,173.3 303.0,173.3 303.0,173.4C303.0,173.4 303.1,173.1 303.1,173.5C303.1,173.9 303.1,175.2 303.1,175.6C303.1,176.0 303.0,175.6 303.0,175.8C303.0,175.9 303.0,176.1 303.0,176.2C303.0,176.4 303.1,176.3 303.1,176.4C303.1,176.5 303.1,176.7 303.1,176.8C303.1,176.8 303.2,176.7 303.2,176.8C303.3,176.8 303.3,176.9 303.4,176.9C303.4,176.9 303.5,176.9 303.5,176.9C303.5,176.9 303.6,177.0 303.6,177.0C303.7,177.0 303.7,177.0 303.8,177.0C303.8,177.0 304.0,177.2 304.0,177.2C304.0,177.3 304.0,177.3 304.0,177.4C304.0,177.4 304.1,177.0 304.1,177.5C304.1,178.0 304.1,179.9 304.1,180.4C304.1,180.9 304.0,180.5 304.0,180.5C304.0,180.5 304.1,180.5 304.0,180.6C303.9,180.7 303.8,180.9 303.6,181.0C303.5,181.1 303.4,181.1 303.2,181.0C303.1,180.9 302.9,180.7 302.9,180.6C302.8,180.5 302.9,180.5 302.9,180.5C302.9,180.5 302.8,180.8 302.8,180.4C302.7,180.0 302.7,178.6 302.8,178.2C302.8,177.9 302.9,178.2 302.9,178.1C302.9,178.0 302.9,177.7 302.9,177.6C302.9,177.5 302.8,177.6 302.8,177.5C302.7,177.4 302.8,177.2 302.8,177.1C302.7,177.1 302.7,177.1 302.6,177.1C302.6,177.1 302.5,177.0 302.5,177.0C302.5,177.0 302.4,177.0 302.4,177.0C302.3,177.0 302.3,176.9 302.2,176.9C302.2,176.9 302.2,176.9 302.1,176.9C302.1,176.8 301.9,176.7 301.9,176.6C301.8,176.6 301.9,176.5 301.9,176.5C301.9,176.5 301.8,176.9 301.8,176.4C301.7,175.9 301.7,174.0 301.8,173.5C301.8,173.0 301.9,173.4 301.9,173.4C301.9,173.3 301.8,173.3 301.9,173.2C301.9,173.2 302.1,173.0 302.1,173.0C302.2,173.0 302.2,173.0 302.2,173.0C302.3,173.0 302.3,172.9 302.4,172.9Z M293.9,156.1C293.9,156.0 294.0,155.9 294.1,155.9C294.2,155.8 294.5,155.8 294.6,155.9C294.8,155.9 294.9,156.2 295.0,156.2C295.1,156.3 295.0,156.3 295.0,156.4C295.0,156.4 295.1,156.5 295.1,156.5C295.1,156.5 295.1,156.6 295.1,156.6C295.1,156.7 295.2,156.7 295.2,156.8C295.3,156.8 295.3,156.7 295.4,156.8C295.4,156.8 295.5,156.9 295.5,156.9C295.5,156.9 295.5,156.8 295.6,156.9C295.7,156.9 295.9,157.2 296.0,157.2C296.1,157.3 296.0,157.3 296.0,157.4C296.0,157.4 296.1,157.5 296.1,157.5C296.1,157.5 296.1,157.6 296.1,157.6C296.1,157.7 296.2,157.7 296.2,157.8C296.3,157.8 296.3,157.7 296.4,157.8C296.4,157.8 296.5,157.9 296.5,157.9C296.5,157.9 296.5,157.8 296.6,157.9C296.7,157.9 296.9,158.2 297.0,158.2C297.1,158.3 297.0,158.3 297.0,158.4C297.0,158.4 297.1,158.5 297.1,158.5C297.1,158.5 297.1,158.6 297.1,158.6C297.1,158.7 297.2,158.7 297.2,158.8C297.3,158.8 297.3,158.7 297.4,158.8C297.4,158.8 297.5,158.9 297.5,158.9C297.5,158.9 297.5,158.8 297.6,158.9C297.7,158.9 297.9,159.2 298.0,159.2C298.1,159.3 298.0,159.3 298.0,159.4C298.0,159.4 298.1,159.5 298.1,159.5C298.1,159.5 298.1,159.6 298.1,159.6C298.1,159.7 298.2,159.7 298.2,159.8C298.3,159.8 298.3,159.7 298.4,159.8C298.4,159.8 298.5,159.9 298.5,159.9C298.5,159.9 298.5,159.8 298.6,159.9C298.7,159.9 298.9,160.2 299.0,160.2C299.1,160.3 299.0,160.3 299.0,160.4C299.0,160.4 299.1,160.5 299.1,160.5C299.1,160.5 299.1,160.6 299.1,160.6C299.1,160.7 299.2,160.7 299.2,160.8C299.3,160.8 299.3,160.7 299.4,160.8C299.4,160.8 299.5,160.9 299.5,160.9C299.5,160.9 299.5,160.8 299.6,160.9C299.7,160.9 299.9,161.2 300.0,161.2C300.1,161.3 300.0,161.3 300.0,161.4C300.0,161.4 300.1,161.5 300.1,161.5C300.1,161.5 300.1,161.6 300.1,161.6C300.1,161.7 300.2,161.7 300.2,161.8C300.3,161.8 300.3,161.7 300.4,161.8C300.4,161.8 300.5,161.9 300.5,161.9C300.5,161.9 300.5,161.8 300.6,161.9C300.7,161.9 300.9,162.1 301.0,162.2C301.1,162.4 301.0,162.6 301.0,162.8C301.0,162.9 300.9,163.0 300.8,163.0C300.6,163.0 300.4,163.1 300.2,163.0C300.1,162.9 299.9,162.7 299.9,162.6C299.8,162.5 299.9,162.5 299.9,162.5C299.9,162.5 299.8,162.4 299.8,162.4C299.7,162.3 299.8,162.3 299.8,162.2C299.7,162.2 299.7,162.1 299.6,162.1C299.6,162.1 299.5,162.1 299.5,162.1C299.5,162.1 299.4,162.0 299.4,162.0C299.3,162.0 299.3,162.1 299.2,162.0C299.2,161.9 298.9,161.7 298.9,161.6C298.8,161.5 298.9,161.5 298.9,161.5C298.9,161.5 298.8,161.4 298.8,161.4C298.7,161.3 298.8,161.3 298.8,161.2C298.7,161.2 298.7,161.1 298.6,161.1C298.6,161.1 298.5,161.1 298.5,161.1C298.5,161.1 298.4,161.0 298.4,161.0C298.3,161.0 298.3,161.1 298.2,161.0C298.2,160.9 297.9,160.7 297.9,160.6C297.8,160.5 297.9,160.5 297.9,160.5C297.9,160.5 297.8,160.4 297.8,160.4C297.7,160.3 297.8,160.3 297.8,160.2C297.7,160.2 297.7,160.1 297.6,160.1C297.6,160.1 297.5,160.1 297.5,160.1C297.5,160.1 297.4,160.0 297.4,160.0C297.3,160.0 297.3,160.1 297.2,160.0C297.2,159.9 296.9,159.7 296.9,159.6C296.8,159.5 296.9,159.5 296.9,159.5C296.9,159.5 296.8,159.4 296.8,159.4C296.7,159.3 296.8,159.3 296.8,159.2C296.7,159.2 296.7,159.1 296.6,159.1C296.6,159.1 296.5,159.1 296.5,159.1C296.5,159.1 296.4,159.0 296.4,159.0C296.3,159.0 296.3,159.1 296.2,159.0C296.2,158.9 295.9,158.7 295.9,158.6C295.8,158.5 295.9,158.5 295.9,158.5C295.9,158.5 295.8,158.4 295.8,158.4C295.7,158.3 295.8,158.3 295.8,158.2C295.7,158.2 295.7,158.1 295.6,158.1C295.6,158.1 295.5,158.1 295.5,158.1C295.5,158.1 295.4,158.0 295.4,158.0C295.3,158.0 295.3,158.1 295.2,158.0C295.2,157.9 294.9,157.7 294.9,157.6C294.8,157.5 294.9,157.5 294.9,157.5C294.9,157.5 294.8,157.4 294.8,157.4C294.7,157.3 294.8,157.3 294.8,157.2C294.7,157.2 294.7,157.1 294.6,157.1C294.6,157.1 294.5,157.1 294.5,157.1C294.5,157.1 294.4,157.0 294.4,157.0C294.3,157.0 294.3,157.1 294.2,157.0C294.2,156.9 293.9,156.8 293.9,156.6C293.8,156.5 293.8,156.2 293.9,156.1Z M209.2,151.9C209.4,151.8 209.5,151.8 209.6,151.9C209.8,152.0 210.0,151.4 210.1,152.5C210.2,153.6 210.1,157.4 210.1,158.4C210.1,159.4 210.0,158.4 210.0,158.5C210.0,158.6 210.0,159.1 210.0,159.2C210.0,159.4 210.0,159.4 210.1,159.6C210.3,159.8 210.9,159.9 211.0,160.4C211.1,160.8 211.0,161.9 211.0,162.2C211.0,162.6 211.1,160.7 211.1,162.4C211.1,164.1 211.1,170.8 211.1,172.5C211.1,174.2 211.0,172.2 211.0,172.6C211.0,173.0 211.0,174.4 211.0,174.8C211.0,175.1 211.1,174.8 211.1,174.9C211.1,175.0 211.2,175.2 211.1,175.4C211.0,175.6 210.8,175.9 210.6,176.0C210.5,176.1 210.3,176.0 210.1,175.9C210.0,175.7 209.8,175.4 209.6,175.1C209.4,174.9 209.0,174.7 208.9,174.5C208.7,174.3 208.8,174.3 208.8,174.1C208.8,173.9 208.7,173.6 208.9,173.4C209.0,173.1 209.6,172.8 209.8,172.6C209.9,172.4 209.9,172.4 209.9,172.2C209.9,172.1 209.9,171.6 209.9,171.5C209.9,171.4 209.8,172.7 209.8,171.4C209.7,170.0 209.7,164.8 209.8,163.5C209.8,162.2 209.9,163.5 209.9,163.4C209.9,163.2 209.9,162.8 209.9,162.6C209.9,162.4 209.9,162.4 209.8,162.2C209.6,162.1 209.0,161.9 208.9,161.5C208.7,161.1 208.9,160.0 208.9,159.6C208.9,159.3 208.8,160.7 208.8,159.5C208.7,158.3 208.7,153.8 208.8,152.5C208.8,151.2 209.1,152.0 209.2,151.9Z M284.2,144.9C284.4,144.8 284.4,144.9 284.5,144.9C284.6,144.9 284.6,145.0 284.6,145.0C284.7,145.0 284.7,145.0 284.8,145.0C284.8,145.0 285.0,145.2 285.0,145.2C285.0,145.3 284.8,145.2 285.0,145.4C285.2,145.6 285.8,146.2 286.0,146.4C286.2,146.6 285.9,146.4 286.0,146.5C286.1,146.6 286.3,146.8 286.4,146.9C286.5,146.9 286.4,146.8 286.5,146.9C286.6,147.0 286.9,147.2 287.0,147.4C287.1,147.6 287.0,148.0 287.0,148.1C287.0,148.3 287.1,148.2 287.1,148.2C287.1,148.3 287.1,148.5 287.1,148.6C287.1,148.7 287.2,148.7 287.2,148.8C287.3,148.8 287.3,148.7 287.4,148.8C287.4,148.8 287.5,148.9 287.5,148.9C287.5,148.9 287.5,148.8 287.6,148.9C287.7,148.9 287.9,149.2 288.0,149.2C288.1,149.3 288.0,149.3 288.0,149.4C288.0,149.4 288.1,149.5 288.1,149.5C288.1,149.5 288.1,149.6 288.1,149.6C288.1,149.7 288.2,149.7 288.2,149.8C288.3,149.8 288.3,149.7 288.4,149.8C288.4,149.8 288.5,149.9 288.5,149.9C288.5,149.9 288.5,149.8 288.6,149.9C288.7,149.9 288.9,150.2 289.0,150.2C289.1,150.3 289.0,150.3 289.0,150.4C289.0,150.4 289.1,150.5 289.1,150.5C289.1,150.5 289.1,150.6 289.1,150.6C289.1,150.7 289.2,150.7 289.2,150.8C289.3,150.8 289.3,150.7 289.4,150.8C289.4,150.8 289.5,150.9 289.5,150.9C289.5,150.9 289.5,150.8 289.6,150.9C289.7,150.9 289.9,151.1 290.0,151.2C290.1,151.4 290.0,151.6 290.0,151.8C290.0,151.9 289.9,152.0 289.8,152.0C289.6,152.0 289.4,152.1 289.2,152.0C289.1,151.9 288.9,151.7 288.9,151.6C288.8,151.5 288.9,151.5 288.9,151.5C288.9,151.5 288.8,151.4 288.8,151.4C288.7,151.3 288.8,151.3 288.8,151.2C288.7,151.2 288.7,151.1 288.6,151.1C288.6,151.1 288.5,151.1 288.5,151.1C288.5,151.1 288.4,151.0 288.4,151.0C288.3,151.0 288.3,151.1 288.2,151.0C288.2,150.9 287.9,150.7 287.9,150.6C287.8,150.5 287.9,150.5 287.9,150.5C287.9,150.5 287.8,150.4 287.8,150.4C287.7,150.3 287.8,150.3 287.8,150.2C287.7,150.2 287.7,150.1 287.6,150.1C287.6,150.1 287.5,150.1 287.5,150.1C287.5,150.1 287.4,150.0 287.4,150.0C287.3,150.0 287.3,150.1 287.2,150.0C287.2,149.9 286.9,149.7 286.9,149.6C286.8,149.5 286.9,149.5 286.9,149.5C286.9,149.5 286.8,149.4 286.8,149.4C286.7,149.3 286.8,149.3 286.8,149.2C286.7,149.2 286.6,149.0 286.5,149.0C286.4,149.0 286.6,149.2 286.4,149.0C286.1,148.8 285.1,147.8 284.9,147.5C284.6,147.2 284.9,147.5 284.9,147.4C284.8,147.3 284.6,147.1 284.5,147.0C284.4,146.9 284.5,147.1 284.4,147.0C284.3,146.9 284.0,146.6 283.9,146.5C283.8,146.4 283.9,146.3 283.9,146.2C283.9,146.2 283.8,146.2 283.8,146.1C283.7,146.0 283.7,145.6 283.8,145.5C283.8,145.4 283.9,145.4 283.9,145.4C283.9,145.3 283.8,145.3 283.9,145.2C283.9,145.2 284.1,144.9 284.2,144.9Z M132.2,111.9C132.4,111.8 132.5,111.8 132.6,111.9C132.8,111.9 132.9,112.1 133.0,112.2C133.1,112.4 133.1,112.3 133.1,112.5C133.1,112.7 133.1,113.3 133.1,113.5C133.1,113.7 133.0,113.5 133.0,113.6C133.0,113.8 133.0,114.1 133.0,114.2C133.0,114.4 133.1,114.3 133.1,114.4C133.1,114.4 133.0,114.5 133.1,114.6C133.3,114.8 133.9,115.1 134.0,115.4C134.1,115.7 133.8,116.2 134.0,116.5C134.2,116.8 134.8,117.0 135.0,117.4C135.2,117.7 134.8,118.2 135.0,118.5C135.2,118.8 135.8,119.0 136.0,119.4C136.2,119.7 135.8,120.2 136.0,120.5C136.2,120.8 136.8,121.0 137.0,121.4C137.2,121.7 136.8,122.2 137.0,122.5C137.2,122.8 137.8,123.2 138.0,123.4C138.2,123.6 138.0,123.7 138.0,123.8C138.0,123.8 138.1,123.8 138.1,123.9C138.1,123.9 138.0,124.0 138.0,124.1C138.0,124.2 138.1,124.4 138.0,124.5C137.9,124.6 138.6,124.9 137.5,125.0C136.4,125.1 132.6,125.0 131.6,125.0C130.6,125.0 131.7,125.1 131.5,125.1C131.3,125.1 130.8,125.2 130.5,125.1C130.2,125.0 130.0,124.8 129.9,124.6C129.8,124.5 129.8,124.4 129.9,124.2C129.9,124.1 130.1,124.0 130.2,123.9C130.4,123.8 130.3,123.8 130.5,123.8C130.7,123.8 131.1,123.9 131.2,123.9C131.4,123.9 131.3,123.8 131.4,123.8C131.4,123.7 131.5,123.8 131.6,123.8C131.7,123.7 131.8,125.0 131.9,123.5C131.9,122.0 131.9,116.1 131.9,114.6C131.9,113.1 131.8,114.9 131.8,114.5C131.7,114.1 131.7,112.9 131.8,112.5C131.8,112.1 132.1,112.0 132.2,111.9Z M195.4,100.9C195.4,100.9 195.5,100.9 195.5,100.9C195.5,100.9 195.6,101.0 195.6,101.0C195.7,101.0 195.7,101.0 195.8,101.0C195.8,101.0 196.0,101.2 196.0,101.2C196.0,101.3 195.8,101.2 196.0,101.4C196.2,101.6 196.8,102.1 197.0,102.4C197.2,102.6 197.0,102.7 197.0,102.8C197.0,102.8 197.1,102.7 197.1,102.9C197.1,103.1 197.1,103.7 197.1,103.9C197.1,104.1 197.0,104.0 197.0,104.0C197.0,104.0 197.0,104.1 197.0,104.1C197.0,104.2 197.1,104.1 197.1,104.2C197.1,104.4 197.1,104.7 197.1,104.8C197.1,104.8 197.2,104.7 197.2,104.8C197.3,104.8 197.3,104.9 197.4,104.9C197.4,104.9 197.5,104.9 197.5,104.9C197.5,104.9 197.6,105.0 197.6,105.0C197.7,105.0 197.7,105.0 197.8,105.0C197.8,105.0 198.0,105.2 198.0,105.2C198.0,105.3 198.0,105.3 198.0,105.4C198.0,105.4 198.1,105.4 198.1,105.5C198.1,105.6 198.1,105.8 198.1,105.9C198.1,106.0 198.0,105.9 198.0,106.0C198.0,106.1 198.0,106.2 198.0,106.2C198.0,106.3 198.1,106.3 198.1,106.4C198.1,106.4 198.1,106.5 198.1,106.5C198.1,106.5 198.2,106.6 198.2,106.6C198.3,106.7 198.2,106.7 198.2,106.8C198.3,106.8 198.3,106.9 198.4,106.9C198.4,106.9 198.4,106.8 198.5,106.9C198.6,107.0 198.9,107.2 199.0,107.4C199.1,107.5 199.0,107.7 199.0,107.8C199.0,107.8 199.1,107.6 199.1,107.9C199.1,108.1 199.1,109.1 199.1,109.4C199.1,109.6 199.0,109.5 199.0,109.5C199.0,109.5 199.1,109.5 199.0,109.6C198.9,109.7 198.8,109.9 198.6,110.0C198.5,110.1 198.4,110.1 198.2,110.0C198.1,109.9 197.9,109.7 197.9,109.6C197.8,109.5 197.9,109.5 197.9,109.5C197.9,109.5 197.8,109.5 197.8,109.4C197.7,109.3 197.7,109.1 197.8,109.0C197.8,108.9 197.9,108.9 197.9,108.9C197.9,108.8 197.9,108.7 197.9,108.6C197.9,108.6 197.8,108.5 197.8,108.5C197.7,108.5 197.8,108.4 197.8,108.4C197.7,108.3 197.6,108.3 197.6,108.2C197.6,108.2 197.6,108.2 197.6,108.1C197.6,108.1 197.5,108.0 197.5,108.0C197.5,108.0 197.5,108.1 197.4,108.0C197.3,107.9 197.0,107.6 196.9,107.5C196.8,107.4 196.9,107.2 196.9,107.1C196.9,107.0 196.8,107.2 196.8,107.0C196.7,106.8 196.7,106.2 196.8,106.0C196.8,105.8 196.9,105.9 196.9,105.9C196.9,105.8 196.9,105.8 196.9,105.8C196.9,105.7 196.8,105.7 196.8,105.6C196.7,105.5 196.8,105.2 196.8,105.1C196.7,105.0 196.7,105.1 196.6,105.1C196.6,105.1 196.5,105.0 196.5,105.0C196.5,105.0 196.4,105.0 196.4,105.0C196.3,105.0 196.3,104.9 196.2,104.9C196.2,104.9 196.2,104.9 196.1,104.9C196.1,104.8 195.9,104.7 195.9,104.6C195.8,104.6 195.9,104.5 195.9,104.5C195.9,104.5 195.8,104.5 195.8,104.4C195.7,104.3 195.7,104.1 195.8,104.0C195.8,103.9 195.9,103.9 195.9,103.9C195.9,103.8 195.9,103.7 195.9,103.6C195.9,103.6 195.8,103.5 195.8,103.5C195.7,103.5 195.8,103.4 195.8,103.4C195.7,103.3 195.6,103.3 195.6,103.2C195.6,103.2 195.6,103.2 195.6,103.1C195.6,103.1 195.5,103.0 195.5,103.0C195.5,103.0 195.5,103.1 195.4,103.0C195.3,102.9 195.0,102.6 194.9,102.5C194.8,102.4 194.9,102.3 194.9,102.2C194.9,102.2 194.8,102.2 194.8,102.1C194.7,102.0 194.7,101.6 194.8,101.5C194.8,101.4 194.9,101.4 194.9,101.4C194.9,101.3 194.8,101.3 194.9,101.2C194.9,101.2 195.1,101.0 195.1,101.0C195.2,101.0 195.2,101.0 195.2,101.0C195.3,101.0 195.3,100.9 195.4,100.9Z M160.2,59.9C160.5,59.7 161.1,59.6 161.4,59.8C161.7,59.9 161.8,60.6 162.1,60.8C162.5,60.9 163.0,60.6 163.4,60.8C163.7,60.9 163.8,61.6 164.1,61.8C164.5,61.9 165.0,61.6 165.4,61.8C165.7,61.9 165.8,62.6 166.1,62.8C166.5,62.9 167.1,62.5 167.6,62.9C168.1,63.2 168.8,64.4 169.2,64.8C169.7,65.1 170.0,64.5 170.5,64.9C171.0,65.2 171.6,66.4 172.1,66.8C172.6,67.1 172.7,66.3 173.5,66.9C174.3,67.5 176.4,69.6 177.0,70.4C177.6,71.2 176.3,70.6 177.1,71.6C178.0,72.6 181.1,75.4 182.0,76.4C182.9,77.4 181.9,77.2 182.2,77.8C182.6,78.2 183.7,78.9 184.0,79.4C184.3,79.9 183.8,80.2 184.1,80.8C184.5,81.2 185.7,81.9 186.0,82.4C186.3,82.9 185.8,83.2 186.1,83.8C186.5,84.2 187.7,84.9 188.0,85.4C188.3,85.9 187.9,86.4 188.1,86.8C188.3,87.1 189.0,87.2 189.1,87.5C189.3,87.8 188.8,88.2 189.1,88.6C189.4,89.1 190.7,89.7 191.0,90.2C191.3,90.8 191.0,91.4 191.1,91.8C191.3,92.1 191.9,92.0 192.0,92.2C192.1,92.5 191.8,92.9 192.0,93.2C192.2,93.6 192.8,94.0 193.0,94.4C193.2,94.8 192.9,95.4 193.1,95.8C193.3,96.1 194.0,96.2 194.1,96.5C194.3,96.8 194.2,97.1 194.1,97.4C194.1,97.6 193.9,97.8 193.8,97.9C193.6,98.0 193.4,98.0 193.2,98.0C193.1,98.0 193.0,97.9 192.9,97.6C192.8,97.3 193.1,96.6 192.8,96.1C192.4,95.6 191.2,95.2 190.9,94.5C190.5,93.8 190.9,92.6 190.8,92.1C190.6,91.6 190.0,91.9 189.9,91.6C189.7,91.3 190.1,90.8 189.8,90.2C189.4,89.8 188.2,89.1 187.9,88.6C187.5,88.1 188.1,87.6 187.8,87.1C187.4,86.6 186.2,86.0 185.9,85.5C185.5,85.0 186.1,84.6 185.8,84.1C185.4,83.6 184.2,83.0 183.9,82.5C183.5,82.0 184.2,81.8 183.8,81.1C183.2,80.5 181.4,79.2 180.9,78.5C180.4,77.8 181.0,77.6 180.6,77.1C180.3,76.6 179.2,76.0 178.9,75.5C178.6,75.0 179.1,74.7 178.8,74.2C178.4,73.8 178.0,73.8 176.9,72.6C175.7,71.4 172.8,68.1 171.8,67.1C170.7,66.2 171.1,67.5 170.4,67.0C169.7,66.5 168.3,64.6 167.6,64.1C166.9,63.6 166.6,64.2 166.2,64.0C165.9,63.8 166.0,63.3 165.8,63.1C165.5,63.0 164.8,63.3 164.5,63.1C164.2,63.0 164.1,62.3 163.8,62.1C163.4,62.0 162.8,62.3 162.5,62.1C162.2,62.0 162.1,61.3 161.8,61.1C161.4,60.9 160.6,61.1 160.2,61.0C159.9,60.9 159.9,60.8 159.9,60.6C159.9,60.4 160.0,60.0 160.2,59.9Z M105.1,27.9C105.2,27.8 105.5,27.8 105.6,27.9C105.8,28.0 106.0,28.5 106.1,28.6C106.3,28.8 106.5,28.7 106.6,28.9C106.8,29.0 107.0,29.5 107.1,29.6C107.3,29.8 107.5,29.7 107.6,29.9C107.8,30.0 108.0,30.5 108.1,30.6C108.3,30.8 108.5,30.7 108.6,30.9C108.8,31.0 108.9,31.4 109.1,31.6C109.4,31.9 109.8,32.1 110.0,32.2C110.2,32.4 110.0,32.6 110.2,32.8C110.5,32.9 111.0,32.6 111.5,32.9C112.0,33.1 112.7,33.9 113.0,34.4C113.3,34.8 113.0,35.4 113.1,35.6C113.2,35.9 113.5,35.7 113.6,35.9C113.8,36.0 114.0,36.5 114.1,36.6C114.3,36.8 114.5,36.7 114.6,36.9C114.8,37.0 114.9,37.4 115.1,37.6C115.4,37.9 115.8,38.1 116.0,38.2C116.2,38.4 116.0,38.6 116.2,38.8C116.5,38.9 117.2,38.8 117.5,38.9C117.8,39.0 117.9,39.1 118.0,39.4C118.1,39.7 118.0,40.5 118.1,40.8C118.2,41.0 117.9,40.3 118.5,40.9C119.1,41.5 121.4,43.6 122.0,44.4C122.6,45.2 122.0,45.4 122.1,45.6C122.2,45.9 122.4,45.7 122.6,45.9C122.8,46.1 122.9,46.6 123.2,46.8C123.6,46.9 124.2,46.8 124.5,46.9C124.8,47.0 124.9,47.1 125.0,47.4C125.1,47.7 125.0,48.4 125.1,48.6C125.2,48.9 125.5,48.7 125.6,48.9C125.8,49.0 125.9,49.4 126.1,49.6C126.4,49.9 126.9,50.1 127.0,50.2C127.1,50.4 127.0,50.6 127.0,50.8C127.0,50.9 126.9,51.0 126.8,51.0C126.6,51.0 126.4,51.1 126.2,51.0C126.1,50.9 125.9,50.4 125.8,50.2C125.6,50.1 125.4,50.2 125.2,50.0C125.1,49.8 125.2,49.7 124.8,49.2C124.3,48.8 123.0,47.5 122.6,47.1C122.2,46.8 122.4,47.1 122.2,47.0C122.1,46.9 122.5,47.0 121.8,46.2C121.0,45.5 118.5,43.4 117.9,42.5C117.2,41.6 117.8,41.4 117.8,41.1C117.7,40.9 117.7,41.3 117.4,41.0C117.0,40.7 116.0,39.5 115.6,39.1C115.3,38.8 115.4,39.1 115.2,39.0C115.1,38.9 114.9,38.4 114.8,38.2C114.6,38.1 114.4,38.2 114.2,38.0C114.1,37.8 113.9,37.4 113.8,37.2C113.6,37.1 113.4,37.2 113.2,37.0C113.1,36.8 113.4,36.9 112.8,36.2C112.1,35.6 110.2,33.7 109.6,33.1C109.0,32.6 109.4,33.1 109.2,33.0C109.1,32.9 108.9,32.4 108.8,32.2C108.6,32.1 108.4,32.2 108.2,32.0C108.1,31.8 107.9,31.4 107.8,31.2C107.6,31.1 107.4,31.2 107.2,31.0C107.1,30.8 107.0,30.5 106.8,30.2C106.5,30.0 106.1,29.8 105.9,29.6C105.7,29.4 105.8,29.3 105.6,29.1C105.5,29.0 105.0,28.8 104.9,28.6C104.8,28.5 104.8,28.2 104.9,28.1C104.9,28.0 105.0,27.9 105.1,27.9Z M98.2,19.9C98.4,19.8 98.4,19.9 98.5,19.9C98.6,19.9 98.6,20.0 98.6,20.0C98.7,20.0 98.7,20.0 98.8,20.0C98.8,20.0 99.0,20.2 99.0,20.2C99.0,20.3 98.8,20.2 99.0,20.4C99.2,20.6 99.8,21.2 100.0,21.4C100.2,21.6 99.9,21.4 100.0,21.5C100.1,21.6 100.3,21.8 100.4,21.9C100.5,21.9 100.4,21.8 100.5,21.9C100.6,22.0 100.9,22.1 101.0,22.4C101.1,22.7 101.0,23.4 101.0,23.6C101.0,23.9 101.1,23.7 101.1,23.8C101.2,23.8 101.3,23.7 101.4,23.8C101.4,23.8 101.5,23.9 101.5,23.9C101.5,23.9 101.5,23.8 101.6,23.9C101.7,23.9 101.9,24.2 102.0,24.2C102.1,24.3 102.0,24.3 102.0,24.4C102.0,24.4 102.1,24.5 102.1,24.5C102.1,24.5 102.1,24.6 102.1,24.6C102.1,24.7 102.2,24.7 102.2,24.8C102.3,24.8 102.3,24.7 102.4,24.8C102.4,24.8 102.5,24.9 102.5,24.9C102.5,24.9 102.5,24.8 102.6,24.9C102.7,24.9 102.9,25.2 103.0,25.2C103.1,25.3 103.0,25.3 103.0,25.4C103.0,25.4 103.1,25.5 103.1,25.5C103.1,25.5 103.1,25.6 103.1,25.6C103.1,25.7 103.2,25.7 103.2,25.8C103.3,25.8 103.3,25.7 103.4,25.8C103.4,25.8 103.5,25.9 103.5,25.9C103.5,25.9 103.5,25.8 103.6,25.9C103.7,25.9 103.9,26.1 104.0,26.2C104.1,26.4 104.0,26.6 104.0,26.8C104.0,26.9 103.9,27.0 103.8,27.0C103.6,27.0 103.4,27.1 103.2,27.0C103.1,26.9 102.9,26.7 102.9,26.6C102.8,26.5 102.9,26.5 102.9,26.5C102.9,26.5 102.8,26.4 102.8,26.4C102.7,26.3 102.8,26.3 102.8,26.2C102.7,26.2 102.7,26.1 102.6,26.1C102.6,26.1 102.5,26.1 102.5,26.1C102.5,26.1 102.4,26.0 102.4,26.0C102.3,26.0 102.3,26.1 102.2,26.0C102.2,25.9 101.9,25.7 101.9,25.6C101.8,25.5 101.9,25.5 101.9,25.5C101.9,25.5 101.8,25.4 101.8,25.4C101.7,25.3 101.8,25.3 101.8,25.2C101.7,25.2 101.7,25.1 101.6,25.1C101.6,25.1 101.5,25.1 101.5,25.1C101.5,25.1 101.4,25.0 101.4,25.0C101.3,25.0 101.3,25.1 101.2,25.0C101.2,24.9 100.9,24.7 100.9,24.6C100.8,24.5 100.9,24.5 100.9,24.5C100.9,24.5 100.8,24.4 100.8,24.4C100.7,24.3 100.8,24.2 100.8,24.1C100.7,24.1 100.9,24.0 100.6,24.0C100.4,24.0 99.7,24.1 99.4,24.0C99.1,23.9 99.0,23.8 98.9,23.5C98.8,23.2 98.9,22.6 98.9,22.4C98.8,22.1 98.6,22.1 98.5,22.0C98.4,21.9 98.5,22.1 98.4,22.0C98.3,21.9 98.0,21.6 97.9,21.5C97.8,21.4 97.9,21.3 97.9,21.2C97.9,21.2 97.8,21.2 97.8,21.1C97.7,21.0 97.7,20.6 97.8,20.5C97.8,20.4 97.9,20.4 97.9,20.4C97.9,20.3 97.8,20.3 97.9,20.2C97.9,20.2 98.1,19.9 98.2,19.9Z M95.0,16.2C95.1,16.4 95.1,16.4 95.1,16.5C95.1,16.6 95.1,16.9 95.1,17.0C95.1,17.1 95.0,16.9 95.0,17.1C95.0,17.4 95.2,18.1 95.0,18.5C94.8,18.9 94.2,19.0 94.0,19.4C93.8,19.7 94.2,20.2 94.0,20.5C93.8,20.8 93.2,21.0 93.0,21.4C92.8,21.7 93.1,22.2 93.0,22.5C92.9,22.8 92.6,22.9 92.5,23.0C92.4,23.1 92.5,22.8 92.4,23.0C92.2,23.2 91.8,23.8 91.5,24.0C91.2,24.2 90.7,23.8 90.4,24.0C90.0,24.2 89.8,24.8 89.5,25.0C89.2,25.2 88.7,24.8 88.4,25.0C88.0,25.2 88.3,25.8 87.5,26.0C86.7,26.2 84.2,26.1 83.4,26.0C82.6,25.9 82.8,25.3 82.6,25.1C82.5,25.0 82.4,25.1 82.4,25.1C82.3,25.1 82.4,25.0 82.2,25.0C82.1,25.0 81.7,25.2 81.5,25.1C81.3,25.1 81.0,24.8 80.9,24.6C80.8,24.5 80.8,24.4 80.9,24.2C81.0,24.1 81.1,23.8 81.5,23.8C81.9,23.7 83.0,24.0 83.5,23.9C84.0,23.7 84.0,23.0 84.4,22.9C84.7,22.7 85.2,23.0 85.5,22.9C85.8,22.7 86.0,22.0 86.4,21.9C86.7,21.7 87.2,22.0 87.5,21.9C87.8,21.7 88.0,21.0 88.4,20.9C88.7,20.7 89.2,21.0 89.5,20.9C89.8,20.7 90.0,20.0 90.4,19.9C90.7,19.7 91.2,19.9 91.5,19.9C91.8,19.8 91.8,19.6 91.9,19.5C91.9,19.4 91.7,19.5 91.9,19.4C92.0,19.2 92.7,18.8 92.9,18.5C93.0,18.2 92.8,17.7 92.9,17.4C93.0,17.1 93.4,17.0 93.6,16.8C93.8,16.5 93.9,16.3 94.0,16.1C94.1,16.0 94.3,15.9 94.4,15.9C94.5,15.8 94.5,15.8 94.6,15.9C94.7,15.9 94.9,16.1 95.0,16.2Z"/>
<path fill="#fff" fill-rule="evenodd" d="M253.0,211.2C253.0,211.4 253.0,211.5 253.0,211.6C253.0,211.7 253.2,211.8 253.2,211.9C253.3,211.9 253.3,211.9 253.4,211.9C253.4,211.9 253.3,212.0 253.5,212.0C253.7,212.0 254.3,212.0 254.5,212.0C254.7,212.0 254.5,211.9 254.6,211.9C254.8,211.9 255.1,211.9 255.2,211.9C255.4,211.9 255.3,212.0 255.4,212.0C255.4,212.0 255.5,212.0 255.5,212.0C255.5,212.0 255.6,212.1 255.6,212.1C255.7,212.1 255.7,212.1 255.8,212.1C255.8,212.2 256.0,212.3 256.0,212.4C256.0,212.4 255.9,212.4 256.0,212.5C256.1,212.6 256.2,212.8 256.4,212.9C256.5,212.9 256.7,212.9 256.8,212.9C256.8,212.9 256.7,213.0 256.9,213.0C257.1,213.0 257.7,213.0 257.9,213.0C258.1,213.0 258.0,212.9 258.0,212.9C258.0,212.9 258.1,212.9 258.1,212.9C258.2,212.9 258.2,213.0 258.2,213.0C258.3,213.0 258.5,213.0 258.6,213.0C258.7,213.0 258.8,213.2 258.9,213.2C258.9,213.3 258.9,213.3 258.9,213.4C258.9,213.4 259.0,213.5 259.0,213.5C259.0,213.5 259.0,213.6 259.0,213.6C259.0,213.7 259.1,213.8 259.2,213.9C259.4,213.9 259.5,213.9 259.6,213.9C259.7,213.8 259.8,213.7 259.9,213.6C259.9,213.5 259.9,213.4 259.9,213.2C259.8,213.1 259.7,213.0 259.6,213.0C259.6,213.0 259.5,213.0 259.5,213.0C259.5,213.0 259.4,212.9 259.4,212.9C259.3,212.9 259.3,212.9 259.2,212.9C259.2,212.8 258.9,212.6 258.9,212.5C258.8,212.4 258.9,212.4 258.9,212.4C258.9,212.3 258.8,212.3 258.8,212.2C258.7,212.2 258.8,212.2 258.8,212.1C258.7,212.1 258.7,212.0 258.6,212.0C258.6,212.0 258.5,212.0 258.5,212.0C258.5,212.0 258.5,211.9 258.4,211.9C258.3,211.9 258.1,211.9 258.0,211.9C257.9,211.9 257.9,212.0 257.9,212.0C257.8,212.0 257.7,212.0 257.6,212.0C257.6,212.0 257.5,211.9 257.5,211.9C257.5,211.9 257.4,211.9 257.4,211.9C257.3,211.9 257.3,211.8 257.2,211.8C257.2,211.7 257.2,211.8 257.1,211.8C257.1,211.7 256.9,211.6 256.9,211.5C256.8,211.4 256.9,211.5 256.9,211.4C256.8,211.3 256.6,211.1 256.5,211.0C256.4,210.9 256.2,211.0 256.1,211.0C256.0,211.0 256.4,210.9 256.0,210.9C255.6,210.9 253.9,210.9 253.5,210.9C253.1,210.9 253.4,211.0 253.4,211.0C253.3,211.0 253.3,211.0 253.2,211.0C253.2,211.0 253.0,211.1 253.0,211.2Z M309.2,203.0C309.1,203.1 308.9,202.8 308.9,203.5C308.8,204.2 308.8,206.7 308.9,207.4C308.9,208.1 309.1,207.7 309.1,207.8C309.2,207.8 309.1,207.7 309.2,207.8C309.4,207.8 309.8,208.0 309.9,208.1C310.0,208.2 309.9,208.4 309.9,208.5C309.9,208.6 310.0,208.5 310.0,208.6C310.0,208.7 310.0,209.0 310.0,209.1C310.0,209.2 309.9,207.7 309.9,209.2C309.9,210.8 309.8,216.8 309.9,218.4C309.9,220.0 310.1,218.8 310.2,218.9C310.4,219.0 310.5,219.0 310.6,218.9C310.8,218.8 310.9,220.1 311.0,218.4C311.1,216.6 311.0,210.2 311.0,208.5C311.0,206.8 310.8,208.2 310.8,208.1C310.7,208.1 310.8,208.2 310.6,208.1C310.5,208.1 310.1,207.9 310.0,207.8C309.9,207.6 310.0,207.5 310.0,207.4C310.0,207.3 309.9,207.4 309.9,207.2C309.9,207.1 309.9,206.9 309.9,206.8C309.9,206.6 310.0,207.2 310.0,206.6C310.0,206.1 310.1,204.1 310.0,203.5C309.9,202.9 309.8,203.1 309.6,203.0C309.5,202.9 309.4,202.9 309.2,203.0Z M53.2,203.0C53.1,203.0 53.0,203.2 53.0,203.2C53.0,203.3 53.0,203.3 53.0,203.4C53.0,203.4 52.9,203.3 52.9,203.5C52.9,203.7 52.9,204.2 52.9,204.4C52.9,204.5 53.0,204.5 53.0,204.5C53.0,204.5 53.0,204.6 53.0,204.6C53.0,204.7 53.1,204.7 53.1,204.8C53.2,204.8 53.2,204.7 53.2,204.8C53.3,204.8 53.3,204.9 53.4,204.9C53.4,204.9 53.5,204.9 53.5,204.9C53.5,204.9 53.6,205.0 53.6,205.0C53.7,205.0 53.7,205.0 53.8,205.0C53.8,205.0 53.9,205.0 53.9,205.1C53.9,205.2 53.9,205.4 53.9,205.5C53.9,205.6 54.0,205.5 54.0,205.6C54.0,205.7 54.0,206.0 54.0,206.1C54.0,206.2 53.9,206.0 53.9,206.2C53.9,206.5 53.9,207.2 53.9,207.4C53.9,207.6 54.0,207.5 54.0,207.5C54.0,207.5 54.0,207.6 54.0,207.6C54.0,207.7 54.1,207.7 54.1,207.8C54.2,207.8 54.2,207.7 54.2,207.8C54.3,207.8 54.3,207.9 54.4,207.9C54.4,207.9 54.5,207.9 54.5,207.9C54.5,207.9 54.6,208.0 54.6,208.0C54.7,208.0 54.7,208.0 54.8,208.0C54.8,208.0 54.9,208.0 54.9,208.1C54.9,208.2 54.9,208.4 54.9,208.5C54.9,208.6 55.0,208.5 55.0,208.6C55.0,208.7 55.0,209.0 55.0,209.1C55.0,209.2 54.9,209.0 54.9,209.2C54.9,209.5 54.9,210.2 54.9,210.4C54.9,210.6 55.0,210.5 55.0,210.5C55.0,210.5 55.0,210.6 55.0,210.6C55.0,210.7 55.1,210.8 55.2,210.9C55.4,210.9 55.5,210.9 55.6,210.9C55.7,210.8 55.8,210.7 55.9,210.6C55.9,210.6 55.9,210.5 55.9,210.5C55.9,210.5 56.0,210.7 56.0,210.4C56.0,210.0 56.0,208.8 56.0,208.5C56.0,208.2 55.9,208.4 55.9,208.4C55.9,208.3 55.9,208.3 55.9,208.2C55.9,208.2 55.8,208.1 55.8,208.1C55.7,208.1 55.7,208.1 55.6,208.1C55.6,208.1 55.5,208.0 55.5,208.0C55.5,208.0 55.4,208.0 55.4,208.0C55.3,208.0 55.3,207.9 55.2,207.9C55.2,207.9 55.2,207.9 55.1,207.9C55.1,207.9 55.0,207.8 55.0,207.8C55.0,207.7 55.0,207.5 55.0,207.4C55.0,207.3 54.9,207.4 54.9,207.2C54.9,207.1 54.9,206.9 54.9,206.8C54.9,206.6 55.0,206.8 55.0,206.6C55.0,206.4 55.0,205.7 55.0,205.5C55.0,205.3 54.9,205.4 54.9,205.4C54.9,205.3 54.9,205.3 54.9,205.2C54.9,205.2 54.8,205.1 54.8,205.1C54.7,205.1 54.7,205.1 54.6,205.1C54.6,205.1 54.5,205.0 54.5,205.0C54.5,205.0 54.4,205.0 54.4,205.0C54.3,205.0 54.3,204.9 54.2,204.9C54.2,204.9 54.2,204.9 54.1,204.9C54.1,204.9 54.0,205.0 54.0,204.8C54.0,204.5 54.0,203.7 54.0,203.5C54.0,203.3 53.9,203.4 53.9,203.4C53.9,203.3 53.9,203.3 53.9,203.2C53.8,203.2 53.7,203.0 53.6,203.0C53.5,203.0 53.4,203.0 53.2,203.0Z M231.1,193.0C231.0,193.0 231.0,193.0 231.0,193.1C231.0,193.2 231.0,193.5 231.0,193.6C231.0,193.8 231.2,193.8 231.2,193.9C231.3,193.9 231.3,193.9 231.4,193.9C231.4,193.9 231.5,194.0 231.5,194.0C231.5,194.0 231.6,194.0 231.6,194.0C231.7,194.0 231.8,194.2 231.9,194.2C231.9,194.3 231.9,194.3 231.9,194.4C231.9,194.4 232.0,194.5 232.0,194.5C232.0,194.5 232.0,194.6 232.0,194.6C232.0,194.7 232.2,194.8 232.2,194.9C232.3,194.9 232.3,194.9 232.4,194.9C232.4,194.9 232.5,195.0 232.5,195.0C232.5,195.0 232.6,195.0 232.6,195.0C232.7,195.0 232.8,195.2 232.9,195.2C232.9,195.3 232.9,195.3 232.9,195.4C232.9,195.4 233.0,195.5 233.0,195.5C233.0,195.5 233.0,195.6 233.0,195.6C233.0,195.7 233.2,195.8 233.2,195.9C233.3,195.9 233.3,195.9 233.4,195.9C233.4,195.9 233.5,196.0 233.5,196.0C233.5,196.0 233.6,196.0 233.6,196.0C233.7,196.0 233.8,196.2 233.9,196.2C233.9,196.3 233.9,196.3 233.9,196.4C233.9,196.4 234.0,196.5 234.0,196.5C234.0,196.5 234.0,196.6 234.0,196.6C234.0,196.7 234.2,196.8 234.2,196.9C234.3,196.9 234.3,196.9 234.4,196.9C234.4,196.9 234.5,197.0 234.5,197.0C234.5,197.0 234.6,197.0 234.6,197.0C234.7,197.0 234.8,197.2 234.9,197.2C234.9,197.3 234.9,197.3 234.9,197.4C234.9,197.4 235.0,197.5 235.0,197.5C235.0,197.5 235.0,197.6 235.0,197.6C235.0,197.7 235.1,197.8 235.2,197.9C235.4,197.9 235.6,197.9 235.8,197.9C235.9,197.9 235.9,197.9 235.9,197.8C235.9,197.6 235.9,197.4 235.9,197.2C235.8,197.1 235.7,197.0 235.6,197.0C235.6,197.0 235.5,197.0 235.5,197.0C235.5,197.0 235.4,196.9 235.4,196.9C235.3,196.9 235.3,196.9 235.2,196.9C235.2,196.8 235.0,196.7 235.0,196.6C235.0,196.6 235.0,196.5 235.0,196.5C235.0,196.5 234.9,196.4 234.9,196.4C234.9,196.3 234.9,196.3 234.9,196.2C234.8,196.2 234.7,196.0 234.6,196.0C234.6,196.0 234.5,196.0 234.5,196.0C234.5,196.0 234.4,195.9 234.4,195.9C234.3,195.9 234.3,195.9 234.2,195.9C234.2,195.8 234.0,195.7 234.0,195.6C234.0,195.6 234.0,195.5 234.0,195.5C234.0,195.5 233.9,195.4 233.9,195.4C233.9,195.3 233.9,195.3 233.9,195.2C233.8,195.2 233.7,195.0 233.6,195.0C233.6,195.0 233.5,195.0 233.5,195.0C233.5,195.0 233.4,194.9 233.4,194.9C233.3,194.9 233.3,194.9 233.2,194.9C233.2,194.8 233.0,194.7 233.0,194.6C233.0,194.6 233.0,194.5 233.0,194.5C233.0,194.5 232.9,194.4 232.9,194.4C232.9,194.3 232.9,194.3 232.9,194.2C232.8,194.2 232.7,194.0 232.6,194.0C232.6,194.0 232.5,194.0 232.5,194.0C232.5,194.0 232.4,193.9 232.4,193.9C232.3,193.9 232.3,193.9 232.2,193.9C232.2,193.8 232.0,193.7 232.0,193.6C232.0,193.6 232.0,193.5 232.0,193.5C232.0,193.5 231.9,193.4 231.9,193.4C231.9,193.3 231.9,193.3 231.9,193.2C231.8,193.2 231.8,193.0 231.6,193.0C231.5,193.0 231.2,193.0 231.1,193.0Z M302.4,173.0C302.3,173.0 302.3,173.1 302.2,173.1C302.2,173.1 302.2,173.1 302.1,173.1C302.1,173.1 302.0,173.2 302.0,173.2C302.0,173.3 302.0,173.3 302.0,173.4C302.0,173.4 301.9,173.0 301.9,173.5C301.9,174.0 301.9,175.9 301.9,176.4C301.9,176.9 302.0,176.5 302.0,176.5C302.0,176.5 302.0,176.6 302.0,176.6C302.0,176.7 302.1,176.7 302.1,176.8C302.2,176.8 302.2,176.7 302.2,176.8C302.3,176.8 302.3,176.9 302.4,176.9C302.4,176.9 302.5,176.9 302.5,176.9C302.5,176.9 302.6,177.0 302.6,177.0C302.7,177.0 302.7,177.0 302.8,177.0C302.8,177.0 302.9,177.0 302.9,177.1C302.9,177.2 302.9,177.4 302.9,177.5C302.9,177.6 303.0,177.5 303.0,177.6C303.0,177.7 303.0,178.0 303.0,178.1C303.0,178.2 302.9,177.9 302.9,178.2C302.9,178.6 302.9,180.0 302.9,180.4C302.9,180.8 303.0,180.5 303.0,180.5C303.0,180.5 303.0,180.6 303.0,180.6C303.0,180.7 303.1,180.8 303.2,180.9C303.4,180.9 303.5,180.9 303.6,180.9C303.7,180.8 303.8,180.7 303.9,180.6C303.9,180.6 303.9,180.5 303.9,180.5C303.9,180.5 304.0,180.9 304.0,180.4C304.0,179.9 304.0,178.0 304.0,177.5C304.0,177.0 303.9,177.4 303.9,177.4C303.9,177.3 303.9,177.3 303.9,177.2C303.9,177.2 303.8,177.1 303.8,177.1C303.7,177.1 303.7,177.1 303.6,177.1C303.6,177.1 303.5,177.0 303.5,177.0C303.5,177.0 303.4,177.0 303.4,177.0C303.3,177.0 303.3,176.9 303.2,176.9C303.2,176.9 303.2,176.9 303.1,176.9C303.1,176.9 303.0,176.8 303.0,176.8C303.0,176.7 303.0,176.5 303.0,176.4C303.0,176.3 302.9,176.4 302.9,176.2C302.9,176.1 302.9,175.9 302.9,175.8C302.9,175.6 303.0,176.0 303.0,175.6C303.0,175.2 303.0,173.9 303.0,173.5C303.0,173.1 302.9,173.4 302.9,173.4C302.9,173.3 302.9,173.3 302.9,173.2C302.8,173.2 302.7,173.0 302.6,173.0C302.5,173.0 302.4,173.0 302.4,173.0Z M294.1,156.0C294.0,156.0 294.0,156.0 294.0,156.1C294.0,156.2 294.0,156.5 294.0,156.6C294.0,156.8 294.2,156.8 294.2,156.9C294.3,156.9 294.3,156.9 294.4,156.9C294.4,156.9 294.5,157.0 294.5,157.0C294.5,157.0 294.6,157.0 294.6,157.0C294.7,157.0 294.8,157.2 294.9,157.2C294.9,157.3 294.9,157.3 294.9,157.4C294.9,157.4 295.0,157.5 295.0,157.5C295.0,157.5 295.0,157.6 295.0,157.6C295.0,157.7 295.2,157.8 295.2,157.9C295.3,157.9 295.3,157.9 295.4,157.9C295.4,157.9 295.5,158.0 295.5,158.0C295.5,158.0 295.6,158.0 295.6,158.0C295.7,158.0 295.8,158.2 295.9,158.2C295.9,158.3 295.9,158.3 295.9,158.4C295.9,158.4 296.0,158.5 296.0,158.5C296.0,158.5 296.0,158.6 296.0,158.6C296.0,158.7 296.2,158.8 296.2,158.9C296.3,158.9 296.3,158.9 296.4,158.9C296.4,158.9 296.5,159.0 296.5,159.0C296.5,159.0 296.6,159.0 296.6,159.0C296.7,159.0 296.8,159.2 296.9,159.2C296.9,159.3 296.9,159.3 296.9,159.4C296.9,159.4 297.0,159.5 297.0,159.5C297.0,159.5 297.0,159.6 297.0,159.6C297.0,159.7 297.2,159.8 297.2,159.9C297.3,159.9 297.3,159.9 297.4,159.9C297.4,159.9 297.5,160.0 297.5,160.0C297.5,160.0 297.6,160.0 297.6,160.0C297.7,160.0 297.8,160.2 297.9,160.2C297.9,160.3 297.9,160.3 297.9,160.4C297.9,160.4 298.0,160.5 298.0,160.5C298.0,160.5 298.0,160.6 298.0,160.6C298.0,160.7 298.2,160.8 298.2,160.9C298.3,160.9 298.3,160.9 298.4,160.9C298.4,160.9 298.5,161.0 298.5,161.0C298.5,161.0 298.6,161.0 298.6,161.0C298.7,161.0 298.8,161.2 298.9,161.2C298.9,161.3 298.9,161.3 298.9,161.4C298.9,161.4 299.0,161.5 299.0,161.5C299.0,161.5 299.0,161.6 299.0,161.6C299.0,161.7 299.2,161.8 299.2,161.9C299.3,161.9 299.3,161.9 299.4,161.9C299.4,161.9 299.5,162.0 299.5,162.0C299.5,162.0 299.6,162.0 299.6,162.0C299.7,162.0 299.8,162.2 299.9,162.2C299.9,162.3 299.9,162.3 299.9,162.4C299.9,162.4 300.0,162.5 300.0,162.5C300.0,162.5 300.0,162.6 300.0,162.6C300.0,162.7 300.1,162.8 300.2,162.9C300.4,162.9 300.6,162.9 300.8,162.9C300.9,162.9 300.9,162.9 300.9,162.8C300.9,162.6 300.9,162.4 300.9,162.2C300.8,162.1 300.7,162.0 300.6,162.0C300.6,162.0 300.5,162.0 300.5,162.0C300.5,162.0 300.4,161.9 300.4,161.9C300.3,161.9 300.3,161.9 300.2,161.9C300.2,161.8 300.0,161.7 300.0,161.6C300.0,161.6 300.0,161.5 300.0,161.5C300.0,161.5 299.9,161.4 299.9,161.4C299.9,161.3 299.9,161.3 299.9,161.2C299.8,161.2 299.7,161.0 299.6,161.0C299.6,161.0 299.5,161.0 299.5,161.0C299.5,161.0 299.4,160.9 299.4,160.9C299.3,160.9 299.3,160.9 299.2,160.9C299.2,160.8 299.0,160.7 299.0,160.6C299.0,160.6 299.0,160.5 299.0,160.5C299.0,160.5 298.9,160.4 298.9,160.4C298.9,160.3 298.9,160.3 298.9,160.2C298.8,160.2 298.7,160.0 298.6,160.0C298.6,160.0 298.5,160.0 298.5,160.0C298.5,160.0 298.4,159.9 298.4,159.9C298.3,159.9 298.3,159.9 298.2,159.9C298.2,159.8 298.0,159.7 298.0,159.6C298.0,159.6 298.0,159.5 298.0,159.5C298.0,159.5 297.9,159.4 297.9,159.4C297.9,159.3 297.9,159.3 297.9,159.2C297.8,159.2 297.7,159.0 297.6,159.0C297.6,159.0 297.5,159.0 297.5,159.0C297.5,159.0 297.4,158.9 297.4,158.9C297.3,158.9 297.3,158.9 297.2,158.9C297.2,158.8 297.0,158.7 297.0,158.6C297.0,158.6 297.0,158.5 297.0,158.5C297.0,158.5 296.9,158.4 296.9,158.4C296.9,158.3 296.9,158.3 296.9,158.2C296.8,158.2 296.7,158.0 296.6,158.0C296.6,158.0 296.5,158.0 296.5,158.0C296.5,158.0 296.4,157.9 296.4,157.9C296.3,157.9 296.3,157.9 296.2,157.9C296.2,157.8 296.0,157.7 296.0,157.6C296.0,157.6 296.0,157.5 296.0,157.5C296.0,157.5 295.9,157.4 295.9,157.4C295.9,157.3 295.9,157.3 295.9,157.2C295.8,157.2 295.7,157.0 295.6,157.0C295.6,157.0 295.5,157.0 295.5,157.0C295.5,157.0 295.4,156.9 295.4,156.9C295.3,156.9 295.3,156.9 295.2,156.9C295.2,156.8 295.0,156.7 295.0,156.6C295.0,156.6 295.0,156.5 295.0,156.5C295.0,156.5 294.9,156.4 294.9,156.4C294.9,156.3 294.9,156.3 294.9,156.2C294.8,156.2 294.8,156.0 294.6,156.0C294.5,156.0 294.2,156.0 294.1,156.0Z M209.2,152.0C209.1,152.1 208.9,151.2 208.9,152.5C208.8,153.8 208.9,158.3 208.9,159.5C208.9,160.7 209.0,159.3 209.0,159.6C209.0,160.0 208.9,161.1 209.0,161.5C209.1,161.9 209.7,162.1 209.9,162.2C210.0,162.4 210.0,162.4 210.0,162.6C210.0,162.8 210.0,163.2 210.0,163.4C210.0,163.5 209.9,162.2 209.9,163.5C209.9,164.8 209.9,170.0 209.9,171.4C209.9,172.7 210.0,171.4 210.0,171.5C210.0,171.6 210.0,172.1 210.0,172.2C210.0,172.4 210.0,172.4 209.9,172.6C209.7,172.8 209.2,173.1 209.0,173.4C208.8,173.6 208.9,173.9 208.9,174.1C208.9,174.3 208.9,174.3 209.0,174.5C209.1,174.7 209.6,174.9 209.8,175.1C209.9,175.3 209.9,175.5 210.0,175.6C210.1,175.8 210.3,175.8 210.4,175.9C210.5,175.9 210.5,176.0 210.6,175.9C210.7,175.8 210.9,175.5 211.0,175.4C211.1,175.2 211.0,175.0 211.0,174.9C211.0,174.8 210.9,175.1 210.9,174.8C210.9,174.4 210.9,173.0 210.9,172.6C210.9,172.2 211.0,174.2 211.0,172.5C211.0,170.8 211.0,164.1 211.0,162.4C211.0,160.7 210.9,162.6 210.9,162.2C210.9,161.9 211.0,160.8 210.9,160.4C210.7,159.9 210.2,159.8 210.0,159.6C209.8,159.4 209.9,159.4 209.9,159.2C209.9,159.1 209.9,158.6 209.9,158.5C209.9,158.4 210.0,159.4 210.0,158.4C210.0,157.4 210.1,153.6 210.0,152.5C209.9,151.4 209.8,152.1 209.6,152.0C209.5,151.9 209.4,151.9 209.2,152.0Z M284.2,145.0C284.2,145.0 284.0,145.2 284.0,145.2C284.0,145.3 284.0,145.3 284.0,145.4C284.0,145.4 283.9,145.4 283.9,145.5C283.9,145.6 283.9,146.0 283.9,146.1C283.9,146.2 284.0,146.2 284.0,146.2C284.0,146.3 283.9,146.4 284.0,146.5C284.1,146.6 284.3,146.8 284.4,146.9C284.5,146.9 284.4,146.8 284.5,146.9C284.6,147.0 284.9,147.3 285.0,147.4C285.1,147.5 284.8,147.2 285.0,147.5C285.2,147.8 286.1,148.6 286.4,148.9C286.6,149.1 286.4,148.8 286.5,148.9C286.6,148.9 286.8,149.2 286.9,149.2C286.9,149.3 286.9,149.3 286.9,149.4C286.9,149.4 287.0,149.5 287.0,149.5C287.0,149.5 287.0,149.6 287.0,149.6C287.0,149.7 287.2,149.8 287.2,149.9C287.3,149.9 287.3,149.9 287.4,149.9C287.4,149.9 287.5,150.0 287.5,150.0C287.5,150.0 287.6,150.0 287.6,150.0C287.7,150.0 287.8,150.2 287.9,150.2C287.9,150.3 287.9,150.3 287.9,150.4C287.9,150.4 288.0,150.5 288.0,150.5C288.0,150.5 288.0,150.6 288.0,150.6C288.0,150.7 288.2,150.8 288.2,150.9C288.3,150.9 288.3,150.9 288.4,150.9C288.4,150.9 288.5,151.0 288.5,151.0C288.5,151.0 288.6,151.0 288.6,151.0C288.7,151.0 288.8,151.2 288.9,151.2C288.9,151.3 288.9,151.3 288.9,151.4C288.9,151.4 289.0,151.5 289.0,151.5C289.0,151.5 289.0,151.6 289.0,151.6C289.0,151.7 289.1,151.8 289.2,151.9C289.4,151.9 289.6,151.9 289.8,151.9C289.9,151.9 289.9,151.9 289.9,151.8C289.9,151.6 289.9,151.4 289.9,151.2C289.8,151.1 289.7,151.0 289.6,151.0C289.6,151.0 289.5,151.0 289.5,151.0C289.5,151.0 289.4,150.9 289.4,150.9C289.3,150.9 289.3,150.9 289.2,150.9C289.2,150.8 289.0,150.7 289.0,150.6C289.0,150.6 289.0,150.5 289.0,150.5C289.0,150.5 288.9,150.4 288.9,150.4C288.9,150.3 288.9,150.3 288.9,150.2C288.8,150.2 288.7,150.0 288.6,150.0C288.6,150.0 288.5,150.0 288.5,150.0C288.5,150.0 288.4,149.9 288.4,149.9C288.3,149.9 288.3,149.9 288.2,149.9C288.2,149.8 288.0,149.7 288.0,149.6C288.0,149.6 288.0,149.5 288.0,149.5C288.0,149.5 287.9,149.4 287.9,149.4C287.9,149.3 287.9,149.3 287.9,149.2C287.8,149.2 287.7,149.0 287.6,149.0C287.6,149.0 287.5,149.0 287.5,149.0C287.5,149.0 287.4,148.9 287.4,148.9C287.3,148.9 287.3,148.9 287.2,148.9C287.2,148.8 287.0,148.7 287.0,148.6C287.0,148.5 287.0,148.3 287.0,148.2C287.0,148.2 286.9,148.3 286.9,148.1C286.9,148.0 286.9,147.6 286.9,147.4C286.8,147.2 286.6,147.1 286.5,147.0C286.4,146.9 286.5,147.1 286.4,147.0C286.3,146.9 286.0,146.6 285.9,146.5C285.8,146.4 286.0,146.6 285.9,146.4C285.7,146.2 285.0,145.6 284.9,145.4C284.7,145.2 284.9,145.3 284.9,145.2C284.9,145.2 284.8,145.1 284.8,145.1C284.7,145.1 284.7,145.1 284.6,145.1C284.6,145.1 284.6,145.0 284.5,145.0C284.4,145.0 284.3,145.0 284.2,145.0Z M126.5,136.0C126.4,135.9 126.2,136.0 126.1,136.0C126.0,136.0 126.1,135.9 126.0,135.9C125.9,135.9 125.6,135.8 125.4,136.0C125.1,136.2 125.2,136.8 124.5,137.0C123.8,137.2 122.0,136.9 121.4,137.0C120.8,137.1 121.2,137.3 121.0,137.5C120.8,137.7 120.2,138.0 120.0,138.4C119.8,138.7 120.2,139.2 120.0,139.5C119.8,139.8 119.2,139.7 119.0,140.4C118.8,141.0 119.2,142.8 119.0,143.5C118.8,144.2 118.2,143.7 118.0,144.4C117.8,145.0 118.2,146.8 118.0,147.5C117.8,148.2 117.2,148.1 117.0,148.4C116.8,148.6 116.9,148.9 116.9,149.1C116.9,149.3 116.8,149.3 117.0,149.5C117.2,149.7 117.8,150.0 118.0,150.4C118.2,150.7 117.8,151.2 118.0,151.5C118.2,151.8 118.8,152.0 119.0,152.4C119.2,152.7 118.8,153.2 119.0,153.5C119.2,153.8 119.8,154.0 120.0,154.4C120.2,154.7 119.9,155.2 120.0,155.5C120.1,155.8 120.2,155.8 120.4,155.9C120.5,156.0 120.9,156.0 121.0,156.0C121.1,156.0 121.0,155.9 121.1,155.9C121.2,155.9 121.4,155.9 121.5,155.9C121.6,155.8 121.8,156.1 121.9,155.5C121.9,154.9 121.7,153.0 121.9,152.4C122.0,151.7 122.7,152.0 122.9,151.5C123.0,151.0 122.7,149.9 122.9,149.4C123.0,148.9 123.7,149.2 123.9,148.5C124.0,147.8 123.7,146.0 123.9,145.4C124.0,144.7 124.7,145.0 124.9,144.5C125.0,144.0 124.7,142.9 124.9,142.4C125.0,141.9 125.7,142.2 125.9,141.5C126.0,140.8 125.7,139.0 125.9,138.4C126.0,137.7 126.7,137.7 126.9,137.5C127.0,137.3 126.9,137.2 126.9,137.1C126.9,137.0 127.0,137.1 127.0,137.0C127.0,136.9 127.0,136.5 126.9,136.4C126.8,136.2 126.6,136.1 126.5,136.0Z M132.6,134.0C132.5,133.9 132.3,134.0 132.1,134.1C132.0,134.2 132.1,134.4 131.8,134.8C131.4,135.1 130.3,135.8 130.0,136.4C129.7,137.0 130.2,138.0 130.0,138.5C129.8,139.0 129.2,138.9 129.0,139.4C128.8,139.9 129.2,141.0 129.0,141.5C128.8,142.0 128.2,141.7 128.0,142.4C127.8,143.0 128.2,144.8 128.0,145.5C127.8,146.2 127.2,145.7 127.0,146.4C126.8,147.0 127.2,148.8 127.0,149.5C126.8,150.2 126.2,149.9 126.0,150.4C125.8,150.9 126.2,152.0 126.0,152.5C125.8,153.0 125.2,152.7 125.0,153.4C124.8,154.0 125.2,155.8 125.0,156.5C124.8,157.2 124.2,156.9 124.0,157.4C123.8,157.9 123.9,159.1 124.0,159.5C124.1,159.9 124.0,159.8 124.4,159.9C124.8,159.9 126.1,159.9 126.5,159.9C126.9,159.8 126.8,159.9 126.9,159.5C126.9,159.1 126.7,157.9 126.9,157.4C127.0,156.9 127.7,157.3 127.9,156.5C128.0,155.7 127.7,153.2 127.9,152.4C128.0,151.5 128.7,152.2 128.9,151.5C129.0,150.8 128.7,149.0 128.9,148.4C129.0,147.7 129.7,148.2 129.9,147.5C130.0,146.8 129.7,145.0 129.9,144.4C130.0,143.7 130.7,144.2 130.9,143.5C131.0,142.8 130.7,141.0 130.9,140.4C131.0,139.7 131.7,140.0 131.9,139.5C132.0,139.0 131.7,137.9 131.9,137.4C132.0,136.9 132.7,137.0 132.9,136.5C133.1,136.0 133.0,134.9 133.0,134.5C133.0,134.1 132.8,134.1 132.6,134.0Z M178.5,121.0C178.2,120.9 177.7,120.8 177.4,121.0C177.0,121.2 177.0,121.8 176.5,122.0C176.0,122.2 174.9,121.8 174.4,122.0C173.9,122.2 174.0,122.8 173.5,123.0C173.0,123.2 171.9,122.8 171.4,123.0C170.9,123.2 171.2,123.8 170.5,124.0C169.8,124.2 168.0,123.8 167.4,124.0C166.7,124.2 167.0,124.8 166.5,125.0C166.0,125.2 164.8,124.9 164.4,125.0C164.0,125.1 164.1,124.3 164.0,125.4C163.9,126.5 164.2,130.3 164.0,131.5C163.8,132.7 163.2,131.0 163.0,132.4C162.8,133.7 163.2,138.2 163.0,139.5C162.8,140.8 162.2,139.5 162.0,140.4C161.8,141.2 162.2,143.7 162.0,144.5C161.8,145.3 161.2,144.9 161.0,145.4C160.8,145.9 160.8,147.0 161.0,147.5C161.2,148.0 161.8,148.0 162.0,148.4C162.2,148.7 161.8,149.2 162.0,149.5C162.2,149.8 162.8,150.0 163.0,150.4C163.2,150.7 162.8,151.1 163.0,151.5C163.2,151.9 164.0,152.6 164.4,152.9C164.8,153.1 165.2,152.7 165.5,152.9C165.8,153.0 165.2,153.7 166.4,153.9C167.5,154.0 171.4,153.9 172.5,153.9C173.6,153.8 172.8,154.1 172.9,153.5C172.9,152.9 172.7,151.0 172.9,150.4C173.0,149.7 173.7,150.5 173.9,149.5C174.0,148.5 173.7,145.4 173.9,144.4C174.0,143.4 174.7,144.5 174.9,143.5C175.0,142.5 174.7,139.4 174.9,138.4C175.0,137.4 175.7,138.2 175.9,137.5C176.0,136.8 175.7,135.0 175.9,134.4C176.0,133.7 176.7,134.3 176.9,133.5C177.0,132.7 176.7,130.2 176.9,129.4C177.0,128.5 177.7,129.5 177.9,128.5C178.0,127.5 177.7,124.4 177.9,123.4C178.0,122.4 178.7,122.7 178.9,122.5C179.1,122.3 179.0,122.2 179.0,122.0C179.0,121.8 179.0,121.5 178.9,121.4C178.8,121.2 178.8,121.1 178.5,121.0Z M184.6,119.0C184.5,118.9 184.3,119.0 184.1,119.1C183.9,119.3 183.8,119.9 183.5,120.0C183.2,120.1 182.6,119.9 182.4,120.0C182.1,120.1 182.1,119.8 182.0,120.4C181.9,121.0 182.2,122.8 182.0,123.5C181.8,124.2 181.2,123.4 181.0,124.4C180.8,125.4 181.2,128.5 181.0,129.5C180.8,130.5 180.2,129.5 180.0,130.4C179.8,131.2 180.2,133.7 180.0,134.5C179.8,135.3 179.2,134.5 179.0,135.4C178.8,136.2 179.2,138.7 179.0,139.5C178.8,140.3 178.2,139.5 178.0,140.4C177.8,141.2 178.2,143.7 178.0,144.5C177.8,145.3 177.2,144.5 177.0,145.4C176.8,146.2 177.2,148.7 177.0,149.5C176.8,150.3 176.2,149.9 176.0,150.4C175.8,150.9 175.9,152.1 176.0,152.5C176.1,152.9 176.2,152.8 176.4,152.9C176.5,153.0 176.7,153.0 176.9,153.0C177.1,153.0 177.2,153.1 177.5,152.9C177.8,152.7 178.0,152.0 178.4,151.9C178.7,151.7 179.2,151.9 179.5,151.9C179.8,151.8 179.8,152.4 179.9,151.5C179.9,150.6 179.7,147.4 179.9,146.4C180.0,145.4 180.7,146.5 180.9,145.5C181.0,144.5 180.7,141.4 180.9,140.4C181.0,139.4 181.7,140.3 181.9,139.5C182.0,138.7 181.7,136.2 181.9,135.4C182.0,134.5 182.7,135.7 182.9,134.5C183.0,133.3 182.7,129.5 182.9,128.4C183.0,127.2 183.7,128.3 183.9,127.5C184.0,126.7 183.7,124.2 183.9,123.4C184.0,122.5 184.7,123.1 184.9,122.5C185.1,121.9 185.0,120.1 185.0,119.5C185.0,118.9 184.8,119.1 184.6,119.0Z M195.4,101.0C195.3,101.0 195.3,101.1 195.2,101.1C195.2,101.1 195.2,101.1 195.1,101.1C195.1,101.2 194.9,101.3 194.9,101.5C194.8,101.7 194.9,102.0 194.9,102.1C194.9,102.2 195.0,102.2 195.0,102.2C195.0,102.3 194.9,102.4 195.0,102.5C195.1,102.6 195.3,102.8 195.4,102.9C195.5,102.9 195.4,102.8 195.5,102.9C195.6,102.9 195.7,103.1 195.8,103.1C195.8,103.2 195.7,103.2 195.8,103.2C195.8,103.3 196.0,103.5 196.0,103.6C196.0,103.7 196.0,103.8 196.0,103.9C196.0,103.9 195.9,103.9 195.9,104.0C195.9,104.1 195.9,104.3 195.9,104.4C195.9,104.5 196.0,104.5 196.0,104.5C196.0,104.5 196.0,104.6 196.0,104.6C196.0,104.7 196.1,104.7 196.1,104.8C196.2,104.8 196.2,104.7 196.2,104.8C196.3,104.8 196.3,104.9 196.4,104.9C196.4,104.9 196.4,104.8 196.5,104.9C196.6,104.9 196.8,105.0 196.9,105.1C196.9,105.2 196.9,105.5 196.9,105.6C196.9,105.7 197.0,105.7 197.0,105.8C197.0,105.8 197.0,105.8 197.0,105.9C197.0,105.9 196.9,105.8 196.9,106.0C196.9,106.2 196.9,106.8 196.9,107.0C196.9,107.2 197.0,107.0 197.0,107.1C197.0,107.2 196.9,107.4 197.0,107.5C197.1,107.6 197.3,107.8 197.4,107.9C197.5,107.9 197.4,107.8 197.5,107.9C197.6,107.9 197.7,108.1 197.8,108.1C197.8,108.2 197.7,108.2 197.8,108.2C197.8,108.3 198.0,108.5 198.0,108.6C198.0,108.7 198.0,108.8 198.0,108.9C198.0,108.9 197.9,108.9 197.9,109.0C197.9,109.1 197.9,109.3 197.9,109.4C197.9,109.5 198.0,109.5 198.0,109.5C198.0,109.5 198.0,109.6 198.0,109.6C198.0,109.7 198.1,109.8 198.2,109.9C198.4,109.9 198.5,109.9 198.6,109.9C198.7,109.8 198.8,109.7 198.9,109.6C198.9,109.6 198.9,109.5 198.9,109.5C198.9,109.5 199.0,109.6 199.0,109.4C199.0,109.1 199.0,108.1 199.0,107.9C199.0,107.6 198.9,107.8 198.9,107.8C198.9,107.7 198.9,107.5 198.9,107.4C198.8,107.2 198.6,107.1 198.5,107.0C198.4,106.9 198.4,107.0 198.4,107.0C198.3,107.0 198.2,106.8 198.1,106.8C198.1,106.7 198.2,106.7 198.1,106.6C198.1,106.5 197.9,106.4 197.9,106.2C197.8,106.1 197.9,106.1 197.9,106.0C197.9,105.9 198.0,106.0 198.0,105.9C198.0,105.8 198.0,105.6 198.0,105.5C198.0,105.4 197.9,105.4 197.9,105.4C197.9,105.3 197.9,105.3 197.9,105.2C197.9,105.2 197.8,105.1 197.8,105.1C197.7,105.1 197.7,105.1 197.6,105.1C197.6,105.1 197.5,105.0 197.5,105.0C197.5,105.0 197.5,105.0 197.4,105.0C197.3,105.0 197.1,104.9 197.0,104.8C196.9,104.6 197.0,104.4 197.0,104.2C197.0,104.1 196.9,104.2 196.9,104.1C196.9,104.1 196.9,104.0 196.9,104.0C196.9,104.0 197.0,104.1 197.0,103.9C197.0,103.7 197.0,103.1 197.0,102.9C197.0,102.7 196.9,102.8 196.9,102.8C196.9,102.7 197.0,102.6 196.9,102.4C196.7,102.1 196.0,101.6 195.9,101.4C195.7,101.2 195.9,101.3 195.9,101.2C195.9,101.2 195.8,101.1 195.8,101.1C195.7,101.1 195.7,101.1 195.6,101.1C195.6,101.1 195.5,101.0 195.5,101.0C195.5,101.0 195.4,101.0 195.4,101.0Z M160.2,60.0C160.0,60.1 160.0,60.2 160.0,60.4C160.0,60.5 160.0,60.8 160.2,60.9C160.5,61.0 161.4,60.8 161.8,61.0C162.1,61.2 161.9,61.7 162.2,61.9C162.6,62.0 163.4,61.8 163.8,62.0C164.1,62.2 164.2,62.8 164.5,63.0C164.8,63.2 165.5,62.9 165.8,63.0C166.0,63.1 165.9,63.7 166.2,63.9C166.6,64.0 166.9,63.5 167.6,64.0C168.3,64.5 169.7,66.4 170.4,66.9C171.1,67.4 170.6,66.0 171.8,67.0C172.9,68.0 175.8,71.4 177.0,72.6C178.2,73.8 178.5,73.8 178.9,74.2C179.2,74.7 178.7,75.0 179.0,75.5C179.3,76.0 180.4,76.6 180.8,77.1C181.1,77.6 180.5,77.8 181.0,78.5C181.5,79.2 183.4,80.5 183.9,81.1C184.4,81.8 183.7,82.0 184.0,82.5C184.3,83.0 185.5,83.6 185.9,84.1C186.2,84.6 185.7,85.0 186.0,85.5C186.3,86.0 187.5,86.6 187.9,87.1C188.2,87.6 187.7,88.1 188.0,88.6C188.3,89.1 189.5,89.8 189.9,90.2C190.2,90.8 189.8,91.3 190.0,91.6C190.2,91.9 190.7,91.6 190.9,92.1C191.0,92.6 190.7,93.8 191.0,94.5C191.3,95.2 192.5,95.6 192.9,96.1C193.2,96.6 192.9,97.3 193.0,97.6C193.1,97.9 193.1,97.9 193.2,97.9C193.4,97.9 193.6,98.0 193.8,97.8C193.9,97.5 194.1,96.8 194.0,96.5C193.9,96.2 193.2,96.1 193.0,95.8C192.8,95.4 193.1,94.8 192.9,94.4C192.7,94.0 192.0,93.6 191.9,93.2C191.7,92.9 192.1,92.8 192.0,92.5C191.9,92.2 191.2,92.1 191.0,91.8C190.8,91.4 191.2,90.8 190.9,90.2C190.5,89.7 189.3,89.1 189.0,88.6C188.7,88.2 189.2,87.8 189.0,87.5C188.8,87.2 188.2,87.1 188.0,86.8C187.8,86.4 188.2,85.9 187.9,85.4C187.5,84.9 186.3,84.2 186.0,83.8C185.7,83.2 186.2,82.9 185.9,82.4C185.5,81.9 184.3,81.2 184.0,80.8C183.7,80.2 184.2,79.9 183.9,79.4C183.6,78.9 182.5,78.2 182.1,77.8C181.8,77.2 182.7,77.4 181.9,76.4C181.0,75.4 177.8,72.6 177.0,71.6C176.2,70.6 177.5,71.1 176.9,70.4C176.3,69.6 174.3,67.6 173.5,67.0C172.7,66.4 172.6,67.2 172.1,66.9C171.6,66.5 171.0,65.3 170.5,65.0C170.0,64.7 169.7,65.2 169.2,64.9C168.8,64.5 168.1,63.3 167.6,63.0C167.1,62.7 166.5,63.0 166.1,62.9C165.8,62.7 166.0,62.2 165.6,62.0C165.3,61.8 164.5,62.0 164.1,61.9C163.8,61.7 164.0,61.2 163.6,61.0C163.3,60.8 162.5,61.1 162.1,60.9C161.8,60.7 161.7,60.0 161.4,59.9C161.1,59.7 160.5,59.9 160.2,60.0Z M105.1,28.0C105.0,28.1 104.9,28.5 105.0,28.6C105.1,28.8 105.5,28.8 105.6,29.0C105.8,29.2 105.8,29.5 106.0,29.6C106.2,29.8 106.5,29.8 106.6,30.0C106.8,30.2 106.8,30.5 107.0,30.6C107.2,30.8 107.5,30.8 107.6,31.0C107.8,31.2 107.8,31.5 108.0,31.6C108.2,31.8 108.5,31.8 108.6,32.0C108.8,32.2 108.8,32.5 109.0,32.6C109.2,32.8 109.0,32.4 109.6,33.0C110.3,33.6 112.3,35.6 112.9,36.2C113.4,36.9 112.9,36.5 113.0,36.6C113.1,36.8 113.5,36.8 113.6,37.0C113.8,37.2 113.8,37.4 114.0,37.6C114.2,37.8 114.7,38.0 114.9,38.2C115.1,38.5 115.1,38.8 115.2,38.9C115.4,39.0 115.3,38.7 115.6,39.0C116.0,39.3 117.0,40.5 117.4,40.9C117.8,41.2 117.8,40.9 117.9,41.1C118.0,41.4 117.3,41.6 118.0,42.5C118.7,43.4 121.2,45.5 121.9,46.2C122.6,47.0 122.1,46.8 122.2,46.9C122.4,47.0 122.2,46.6 122.6,47.0C123.1,47.4 124.4,48.8 124.9,49.2C125.3,49.7 125.1,49.7 125.2,49.9C125.4,50.0 125.7,50.1 125.9,50.2C126.0,50.4 126.1,50.8 126.2,50.9C126.4,51.0 126.6,51.0 126.8,50.9C126.9,50.8 127.0,50.4 126.9,50.2C126.8,50.1 126.4,50.0 126.2,49.9C126.1,49.7 126.1,49.5 125.9,49.2C125.7,49.0 125.2,48.9 125.0,48.6C124.8,48.3 125.0,47.6 124.9,47.4C124.8,47.1 124.8,47.1 124.5,47.0C124.2,46.9 123.5,47.0 123.2,46.9C123.0,46.8 123.1,46.5 122.9,46.2C122.7,46.0 122.2,45.9 122.0,45.6C121.8,45.3 122.5,45.1 121.9,44.4C121.3,43.6 119.1,41.6 118.5,41.0C117.9,40.4 118.1,41.0 118.0,40.8C117.9,40.5 118.0,39.7 117.9,39.4C117.8,39.1 117.8,39.1 117.5,39.0C117.2,38.9 116.5,39.0 116.2,38.9C116.0,38.8 116.0,38.4 115.9,38.2C115.7,38.1 115.4,38.0 115.2,37.9C115.1,37.7 115.0,37.4 114.9,37.2C114.7,37.1 114.4,37.0 114.2,36.9C114.1,36.7 114.1,36.5 113.9,36.2C113.7,36.0 113.2,35.9 113.0,35.6C112.8,35.3 113.1,34.8 112.9,34.4C112.6,33.9 111.9,33.2 111.5,33.0C111.1,32.8 110.5,33.0 110.2,32.9C110.0,32.8 110.0,32.4 109.9,32.2C109.7,32.1 109.4,32.0 109.2,31.9C109.1,31.7 109.0,31.4 108.9,31.2C108.7,31.1 108.4,31.0 108.2,30.9C108.1,30.7 108.0,30.4 107.9,30.2C107.7,30.1 107.4,30.0 107.2,29.9C107.1,29.7 107.0,29.4 106.9,29.2C106.7,29.1 106.5,29.1 106.2,28.9C106.0,28.7 105.8,28.1 105.6,28.0C105.4,27.9 105.2,27.9 105.1,28.0Z M98.2,20.0C98.2,20.0 98.0,20.2 98.0,20.2C98.0,20.3 98.0,20.3 98.0,20.4C98.0,20.4 97.9,20.4 97.9,20.5C97.9,20.6 97.9,21.0 97.9,21.1C97.9,21.2 98.0,21.2 98.0,21.2C98.0,21.3 97.9,21.4 98.0,21.5C98.1,21.6 98.3,21.8 98.4,21.9C98.5,21.9 98.4,21.8 98.5,21.9C98.6,22.0 98.9,22.1 99.0,22.4C99.1,22.6 98.9,23.2 99.0,23.5C99.1,23.8 99.1,23.8 99.4,23.9C99.6,23.9 100.4,23.8 100.6,23.9C100.9,23.9 100.8,24.0 100.9,24.1C100.9,24.2 100.9,24.3 100.9,24.4C100.9,24.4 101.0,24.5 101.0,24.5C101.0,24.5 101.0,24.6 101.0,24.6C101.0,24.7 101.2,24.8 101.2,24.9C101.3,24.9 101.3,24.9 101.4,24.9C101.4,24.9 101.5,25.0 101.5,25.0C101.5,25.0 101.6,25.0 101.6,25.0C101.7,25.0 101.8,25.2 101.9,25.2C101.9,25.3 101.9,25.3 101.9,25.4C101.9,25.4 102.0,25.5 102.0,25.5C102.0,25.5 102.0,25.6 102.0,25.6C102.0,25.7 102.2,25.8 102.2,25.9C102.3,25.9 102.3,25.9 102.4,25.9C102.4,25.9 102.5,26.0 102.5,26.0C102.5,26.0 102.6,26.0 102.6,26.0C102.7,26.0 102.8,26.2 102.9,26.2C102.9,26.3 102.9,26.3 102.9,26.4C102.9,26.4 103.0,26.5 103.0,26.5C103.0,26.5 103.0,26.6 103.0,26.6C103.0,26.7 103.1,26.8 103.2,26.9C103.4,26.9 103.6,26.9 103.8,26.9C103.9,26.9 103.9,26.9 103.9,26.8C103.9,26.6 103.9,26.4 103.9,26.2C103.8,26.1 103.7,26.0 103.6,26.0C103.6,26.0 103.5,26.0 103.5,26.0C103.5,26.0 103.4,25.9 103.4,25.9C103.3,25.9 103.3,25.9 103.2,25.9C103.2,25.8 103.0,25.7 103.0,25.6C103.0,25.6 103.0,25.5 103.0,25.5C103.0,25.5 102.9,25.4 102.9,25.4C102.9,25.3 102.9,25.3 102.9,25.2C102.8,25.2 102.7,25.0 102.6,25.0C102.6,25.0 102.5,25.0 102.5,25.0C102.5,25.0 102.4,24.9 102.4,24.9C102.3,24.9 102.3,24.9 102.2,24.9C102.2,24.8 102.0,24.7 102.0,24.6C102.0,24.6 102.0,24.5 102.0,24.5C102.0,24.5 101.9,24.4 101.9,24.4C101.9,24.3 101.9,24.3 101.9,24.2C101.8,24.2 101.7,24.0 101.6,24.0C101.6,24.0 101.5,24.0 101.5,24.0C101.5,24.0 101.4,23.9 101.4,23.9C101.3,23.9 101.2,23.9 101.1,23.9C101.0,23.8 100.9,23.9 100.9,23.6C100.8,23.4 100.9,22.6 100.9,22.4C100.8,22.1 100.6,22.1 100.5,22.0C100.4,21.9 100.5,22.1 100.4,22.0C100.3,21.9 100.0,21.6 99.9,21.5C99.8,21.4 100.0,21.6 99.9,21.4C99.7,21.2 99.0,20.6 98.9,20.4C98.7,20.2 98.9,20.3 98.9,20.2C98.9,20.2 98.8,20.1 98.8,20.1C98.7,20.1 98.7,20.1 98.6,20.1C98.6,20.1 98.6,20.0 98.5,20.0C98.4,20.0 98.3,20.0 98.2,20.0Z"/></g></svg>